<?xml version="1.0" encoding="utf-8"?>
<!-- Generator: Adobe Illustrator 20.1.0, SVG Export Plug-In . SVG Version: 6.00 Build 0)  -->
<svg version="1.1" id="Ebene_1" xmlns="http://www.w3.org/2000/svg" xmlns:xlink="http://www.w3.org/1999/xlink" x="0px" y="0px"
	 viewBox="0 0 268.8 77.9" style="enable-background:new 0 0 268.8 77.9;" xml:space="preserve">
<style type="text/css">
	.st0{fill:#FFFFFF;}
	.st1{fill:#F4AB00;}
</style>
<path class="st0" d="M126.6,12.3c0,0-4.9,14-6.6,19c-1.7-4.9-6.6-19-6.6-19h-7.5L116.7,42h6.6l10.8-29.7H126.6z"/>
<path class="st0" d="M94,11.6c-3.5,0-6.4,1.4-8.5,3.8c-2-2.4-4.9-3.8-8.4-3.8c-2.2,0-4.2,0.7-5.9,1.9v-1.3h-6.9V42h7V24.1
	c0-3.4,2.2-5.8,5.1-5.8c4,0,4.8,3,4.8,5.5V42h7V24.1c0-3.4,2.1-5.8,5.1-5.8c3.3,0,4.9,1.8,4.9,5.5V42h7V23.9
	C105.4,16.5,100.9,11.6,94,11.6"/>
<path class="st0" d="M46.3,11.6c-8.4,0-14.9,6.9-14.9,15.6c0,8.6,6.5,15.4,14.9,15.4c8.4,0,14.9-6.8,14.9-15.4
	C61.2,18.5,54.6,11.6,46.3,11.6 M46.3,35.9c-4.3,0-7.8-3.9-7.8-8.7c0-4.9,3.5-8.9,7.8-8.9c4.3,0,7.9,4,7.9,8.9
	C54.1,32,50.6,35.9,46.3,35.9"/>
<path class="st0" d="M21.6,31.7c-1.3,2.6-3.7,4.1-6.7,4.1c-4.3,0-7.8-3.9-7.8-8.6c0-4.8,3.5-8.7,7.8-8.7c3,0,5.3,1.5,6.7,4.1
	l0.4,0.7h7.4l-0.6-1.7c-2.1-6.1-7.4-9.9-13.8-9.9C6.7,11.6,0,18.6,0,27.2c0,8.5,6.7,15.4,14.9,15.4c6.5,0,11.8-3.8,13.9-9.9l0.6-1.7
	h-7.4L21.6,31.7z"/>
<path class="st0" d="M222.3,11.6c-8.4,0-14.9,6.9-14.9,15.6c0,8.6,6.6,15.4,14.9,15.4c8.4,0,14.9-6.8,14.9-15.4
	C237.2,18.5,230.7,11.6,222.3,11.6 M222.3,35.9c-4.3,0-7.8-3.9-7.8-8.7c0-4.9,3.5-8.9,7.8-8.9c4.3,0,7.9,4,7.9,8.9
	C230.2,32,226.6,35.9,222.3,35.9"/>
<path class="st0" d="M253.6,11.6c-2.5,0-4.7,0.7-6.6,2v-1.4h-6.9V42h7V24.1c0-3.4,2.5-5.8,5.8-5.8c3.3,0,5.3,2.2,5.3,5.9V42h7V24.4
	C265.3,16.6,260.7,11.6,253.6,11.6"/>
<path class="st0" d="M156,14.7c-2-1.7-4.8-3-8.1-3c-8.3,0-14.9,6.8-14.9,15.5c0,8.7,6.5,15.5,14.9,15.5c2.9,0,5.8-1.1,8.1-3.1V42
	h6.9V12.3H156V14.7z M147.9,18.5c4.3,0,7.9,4,7.9,8.8c0,4.7-3.6,8.6-7.9,8.6c-4.3,0-7.8-3.9-7.8-8.6
	C140.1,22.4,143.6,18.5,147.9,18.5"/>
<path class="st0" d="M185.9,26.2v3.8c0,3.4-2.3,5.8-5.7,5.8c-3.5,0-5.8-2.3-5.8-5.8V19.1h18.3v-6.8h-18.3V6.5h-7v23.4
	c0,7.4,5.4,12.7,12.8,12.7c7.4,0,12.7-5.3,12.7-12.7v-3.8H185.9z"/>
<rect x="197.2" y="12.3" class="st0" width="7" height="29.7"/>
<path class="st1" d="M204.8,5.4c-0.6,2.3-3,3.6-5.2,3c-2.3-0.6-3.6-3-2.9-5.2c0.6-2.3,3-3.6,5.2-2.9C204.1,0.8,205.4,3.1,204.8,5.4"
	/>
<g>
	<path class="st0" d="M116.7,65.6c0-1.1,0.1-2,0.3-2.8c0.2-0.8,0.5-1.4,0.9-1.9c0.4-0.5,0.8-0.9,1.4-1.1c0.5-0.2,1.1-0.4,1.8-0.4
		c0.7,0,1.2,0.1,1.7,0.4c0.5,0.3,0.9,0.6,1.2,1.1v-6.8l2.2,0v18.7l-2,0l-0.1-1.4c-0.3,0.5-0.8,0.9-1.3,1.2c-0.5,0.3-1.1,0.4-1.8,0.4
		c-0.6,0-1.2-0.1-1.8-0.4c-0.5-0.3-1-0.6-1.4-1.1c-0.4-0.5-0.7-1.2-0.9-1.9c-0.2-0.8-0.3-1.7-0.3-2.7V65.6z M118.8,66.8
		c0,1.5,0.2,2.6,0.7,3.2c0.4,0.7,1.1,1,2.1,1c0.6,0,1.1-0.1,1.5-0.4c0.4-0.3,0.7-0.7,0.9-1.2v-6.6c-0.2-0.5-0.6-0.8-0.9-1.1
		c-0.4-0.3-0.9-0.4-1.4-0.4c-1,0-1.7,0.4-2.2,1.1c-0.4,0.7-0.7,1.8-0.7,3.3V66.8z"/>
	<path class="st0" d="M129.5,56.1c0-0.4,0.1-0.7,0.3-0.9c0.2-0.3,0.5-0.4,0.9-0.4c0.4,0,0.7,0.1,0.9,0.4c0.2,0.3,0.3,0.6,0.3,0.9
		c0,0.4-0.1,0.7-0.3,0.9c-0.2,0.2-0.5,0.4-0.9,0.4c-0.4,0-0.7-0.1-0.9-0.4C129.6,56.8,129.5,56.5,129.5,56.1z M131.8,72.8l-2.2,0
		V59.6l2.2,0V72.8z"/>
	<path class="st0" d="M139.9,73c-0.8,0-1.5-0.1-2.1-0.4c-0.6-0.2-1.2-0.6-1.6-1.1c-0.4-0.5-0.8-1.1-1-1.8c-0.2-0.7-0.4-1.6-0.4-2.6
		v-1.5c0-1.2,0.1-2.1,0.4-2.9c0.3-0.8,0.6-1.4,1.1-1.9c0.4-0.5,1-0.9,1.5-1.1c0.6-0.2,1.2-0.3,1.8-0.3c0.8,0,1.5,0.1,2.1,0.4
		c0.6,0.3,1.1,0.7,1.4,1.2c0.4,0.5,0.6,1.2,0.8,1.9c0.2,0.8,0.3,1.7,0.3,2.7v1.3l-7.3,0v0.3c0,1.4,0.3,2.4,0.8,3.1
		c0.5,0.6,1.3,1,2.3,1c0.4,0,0.7,0,1-0.1c0.3-0.1,0.6-0.2,0.8-0.3c0.2-0.1,0.5-0.3,0.7-0.5c0.2-0.2,0.4-0.4,0.6-0.6l1.1,1.4
		c-0.2,0.3-0.4,0.5-0.6,0.7c-0.3,0.2-0.6,0.4-0.9,0.6c-0.3,0.2-0.7,0.3-1.2,0.4C140.9,73,140.4,73,139.9,73z M139.6,61.2
		c-0.4,0-0.7,0.1-1,0.2c-0.3,0.1-0.6,0.3-0.8,0.6c-0.2,0.3-0.4,0.7-0.6,1.2s-0.2,1.1-0.3,1.8l5.2,0v-0.3c0-0.5-0.1-1-0.2-1.4
		c-0.1-0.4-0.2-0.8-0.4-1.1c-0.2-0.3-0.4-0.5-0.7-0.7C140.5,61.3,140.1,61.2,139.6,61.2z"/>
	<path class="st0" d="M162.3,69l2-9.4l2.1,0l-3.2,13.1h-1.7l-2.6-9.4l-2.5,9.4l-1.7,0l-3.2-13.1l2.1,0l2,9.1l2.4-9.1l1.7,0L162.3,69
		z"/>
	<path class="st0" d="M173.4,73c-0.8,0-1.5-0.1-2.1-0.4c-0.6-0.2-1.2-0.6-1.6-1.1c-0.4-0.5-0.8-1.1-1-1.8c-0.2-0.7-0.4-1.6-0.4-2.6
		v-1.5c0-1.2,0.1-2.1,0.4-2.9c0.3-0.8,0.6-1.4,1.1-1.9s1-0.9,1.5-1.1c0.6-0.2,1.2-0.3,1.8-0.3c0.8,0,1.5,0.1,2.1,0.4
		c0.6,0.3,1.1,0.7,1.4,1.2c0.4,0.5,0.6,1.2,0.8,1.9c0.2,0.8,0.3,1.7,0.3,2.7v1.3l-7.3,0v0.3c0,1.4,0.3,2.4,0.8,3.1
		c0.5,0.6,1.3,1,2.3,1c0.4,0,0.7,0,1-0.1c0.3-0.1,0.6-0.2,0.8-0.3c0.2-0.1,0.5-0.3,0.7-0.5c0.2-0.2,0.4-0.4,0.6-0.6l1.1,1.4
		c-0.2,0.3-0.4,0.5-0.6,0.7c-0.3,0.2-0.6,0.4-0.9,0.6c-0.3,0.2-0.7,0.3-1.2,0.4C174.4,73,173.9,73,173.4,73z M173.1,61.2
		c-0.4,0-0.7,0.1-1,0.2c-0.3,0.1-0.6,0.3-0.8,0.6c-0.2,0.3-0.4,0.7-0.6,1.2s-0.2,1.1-0.3,1.8l5.2,0v-0.3c0-0.5-0.1-1-0.2-1.4
		c-0.1-0.4-0.2-0.8-0.4-1.1c-0.2-0.3-0.4-0.5-0.7-0.7C174,61.3,173.6,61.2,173.1,61.2z"/>
	<path class="st0" d="M189.8,66.8c0,1-0.1,2-0.3,2.7c-0.2,0.8-0.5,1.4-0.8,1.9c-0.4,0.5-0.8,0.9-1.4,1.1c-0.5,0.3-1.1,0.4-1.8,0.4
		c-0.7,0-1.4-0.2-1.9-0.5c-0.5-0.3-0.9-0.8-1.3-1.3l-0.1,1.6l-2,0V54.1l2.1,0v7c0.3-0.5,0.8-1,1.3-1.3c0.5-0.3,1.1-0.4,1.8-0.4
		c0.7,0,1.3,0.1,1.9,0.4c0.5,0.2,1,0.6,1.4,1.1c0.4,0.5,0.6,1.2,0.8,1.9c0.2,0.8,0.3,1.7,0.3,2.8V66.8z M187.7,65.6
		c0-0.7,0-1.4-0.1-1.9c-0.1-0.5-0.2-1-0.5-1.3c-0.2-0.4-0.5-0.6-0.9-0.8c-0.4-0.2-0.8-0.3-1.3-0.3c-0.6,0-1.1,0.2-1.5,0.5
		c-0.4,0.3-0.7,0.8-1,1.3v6.3c0.1,0.3,0.2,0.5,0.4,0.7c0.2,0.2,0.3,0.4,0.5,0.6c0.2,0.2,0.4,0.3,0.7,0.4c0.3,0.1,0.5,0.1,0.9,0.1
		c1,0,1.7-0.3,2.1-1c0.4-0.7,0.6-1.8,0.6-3.2V65.6z"/>
	<path class="st0" d="M199.4,72.8c-0.1-0.2-0.1-0.4-0.2-0.6c0-0.3-0.1-0.5-0.1-0.8c-0.2,0.2-0.3,0.4-0.5,0.6
		c-0.2,0.2-0.4,0.4-0.7,0.5c-0.2,0.2-0.5,0.3-0.8,0.4c-0.3,0.1-0.6,0.1-0.9,0.1c-0.6,0-1.1-0.1-1.6-0.2c-0.5-0.2-0.9-0.4-1.2-0.7
		c-0.3-0.3-0.6-0.7-0.8-1.2c-0.2-0.5-0.3-1-0.3-1.7c0-0.6,0.1-1.2,0.3-1.7c0.2-0.5,0.5-1,1-1.4c0.4-0.4,1-0.7,1.6-0.9
		c0.6-0.2,1.4-0.3,2.3-0.3l1.5,0v-1.4c0-0.8-0.2-1.3-0.5-1.7c-0.3-0.3-0.9-0.5-1.6-0.5c-0.3,0-0.7,0.1-0.9,0.2
		c-0.3,0.1-0.5,0.3-0.7,0.4c-0.2,0.2-0.3,0.4-0.4,0.6c-0.1,0.2-0.1,0.5-0.1,0.8l-2.2,0c0-0.5,0.1-0.9,0.3-1.4
		c0.2-0.5,0.5-0.9,0.9-1.3c0.4-0.4,0.9-0.7,1.4-0.9c0.6-0.2,1.2-0.3,1.8-0.3c0.6,0,1.2,0.1,1.7,0.2c0.5,0.1,0.9,0.4,1.3,0.7
		c0.4,0.3,0.7,0.7,0.9,1.3c0.2,0.5,0.3,1.1,0.3,1.9v6.5c0,0.2,0,0.4,0,0.7c0,0.2,0,0.5,0.1,0.7c0,0.2,0.1,0.5,0.1,0.7
		c0.1,0.2,0.1,0.4,0.2,0.6v0.2L199.4,72.8z M196.5,71.1c0.3,0,0.6,0,0.9-0.1c0.3-0.1,0.5-0.2,0.7-0.3c0.2-0.1,0.4-0.3,0.6-0.5
		c0.2-0.2,0.3-0.4,0.4-0.6v-3.1l-1.1,0c-0.5,0-1,0.1-1.4,0.2c-0.4,0.1-0.8,0.3-1.1,0.5c-0.3,0.2-0.5,0.5-0.7,0.8
		c-0.2,0.3-0.2,0.7-0.2,1.1c0,0.4,0,0.7,0.1,1c0.1,0.3,0.2,0.5,0.4,0.7c0.2,0.2,0.4,0.3,0.6,0.4C195.9,71,196.2,71.1,196.5,71.1z"/>
	<path class="st0" d="M204.1,65.6c0-1.1,0.1-2,0.3-2.8c0.2-0.8,0.5-1.4,0.9-1.9c0.4-0.5,0.8-0.9,1.4-1.1c0.5-0.2,1.1-0.4,1.8-0.4
		c0.7,0,1.3,0.1,1.8,0.4c0.5,0.3,0.9,0.7,1.3,1.3l0.1-1.5l1.9,0v13.3c0,0.9-0.1,1.6-0.3,2.3c-0.2,0.6-0.6,1.2-1,1.6
		c-0.4,0.4-0.9,0.7-1.5,0.9c-0.6,0.2-1.2,0.3-1.9,0.3c-0.3,0-0.6,0-0.9-0.1c-0.4-0.1-0.7-0.2-1.1-0.3c-0.4-0.1-0.7-0.3-1.1-0.5
		c-0.4-0.2-0.6-0.5-0.9-0.7l0.9-1.5c0.5,0.5,1,0.8,1.5,1c0.5,0.2,1,0.3,1.5,0.3c0.4,0,0.8-0.1,1.1-0.2c0.3-0.1,0.6-0.3,0.9-0.5
		c0.2-0.2,0.4-0.6,0.6-1c0.1-0.4,0.2-0.9,0.2-1.5v-1.5c-0.3,0.5-0.8,0.9-1.2,1.1c-0.5,0.3-1.1,0.4-1.7,0.4c-0.7,0-1.3-0.1-1.8-0.4
		c-0.5-0.3-1-0.6-1.4-1.1c-0.4-0.5-0.7-1.2-0.9-1.9c-0.2-0.8-0.3-1.7-0.3-2.7V65.6z M206.2,66.8c0,1.5,0.2,2.6,0.6,3.2
		c0.4,0.7,1.1,1,2.1,1c0.6,0,1.1-0.2,1.5-0.5c0.4-0.3,0.7-0.7,0.9-1.2v-6.6c-0.2-0.5-0.6-0.9-0.9-1.2c-0.4-0.3-0.9-0.5-1.4-0.5
		c-1,0-1.7,0.4-2.2,1.1s-0.7,1.8-0.7,3.3V66.8z"/>
	<path class="st0" d="M221.5,73c-0.8,0-1.5-0.1-2.1-0.4c-0.6-0.2-1.2-0.6-1.6-1.1c-0.4-0.5-0.8-1.1-1-1.8c-0.2-0.7-0.4-1.6-0.4-2.6
		v-1.5c0-1.2,0.1-2.1,0.4-2.9c0.3-0.8,0.6-1.4,1.1-1.9c0.4-0.5,1-0.9,1.5-1.1c0.6-0.2,1.2-0.3,1.8-0.3c0.8,0,1.5,0.1,2.1,0.4
		c0.6,0.3,1.1,0.7,1.4,1.2c0.4,0.5,0.6,1.2,0.8,1.9c0.2,0.8,0.3,1.7,0.3,2.7v1.3l-7.3,0v0.3c0,1.4,0.3,2.4,0.8,3.1
		c0.5,0.6,1.3,1,2.3,1c0.4,0,0.7,0,1-0.1c0.3-0.1,0.6-0.2,0.8-0.3c0.2-0.1,0.5-0.3,0.7-0.5c0.2-0.2,0.4-0.4,0.6-0.6l1.1,1.4
		c-0.2,0.3-0.4,0.5-0.6,0.7c-0.3,0.2-0.6,0.4-0.9,0.6c-0.3,0.2-0.7,0.3-1.2,0.4C222.5,73,222,73,221.5,73z M221.2,61.2
		c-0.4,0-0.7,0.1-1,0.2c-0.3,0.1-0.6,0.3-0.8,0.6c-0.2,0.3-0.4,0.7-0.6,1.2s-0.2,1.1-0.3,1.8l5.2,0v-0.3c0-0.5-0.1-1-0.2-1.4
		c-0.1-0.4-0.2-0.8-0.4-1.1c-0.2-0.3-0.4-0.5-0.7-0.7C222.1,61.3,221.7,61.2,221.2,61.2z"/>
	<path class="st0" d="M230.4,59.6l0.1,1.4c0.4-0.5,0.9-0.9,1.4-1.2c0.5-0.3,1.1-0.4,1.8-0.4c0.5,0,1,0.1,1.5,0.3
		c0.4,0.2,0.8,0.5,1.1,0.8c0.3,0.4,0.5,0.9,0.7,1.5c0.2,0.6,0.2,1.3,0.2,2.2v8.6l-2.1,0v-8.6c0-1-0.2-1.8-0.5-2.2
		c-0.3-0.4-0.9-0.6-1.5-0.7c-0.5,0-1,0.2-1.4,0.5c-0.4,0.4-0.8,0.8-1,1.4v9.5l-2.2,0V59.6L230.4,59.6z"/>
	<path class="st0" d="M243.3,56.4v3.2l2,0v1.7l-2,0v8.2c0,0.3,0,0.6,0.1,0.8c0.1,0.2,0.1,0.4,0.3,0.5c0.1,0.1,0.2,0.2,0.4,0.2
		s0.3,0.1,0.4,0.1s0.3,0,0.5-0.1c0.2,0,0.3-0.1,0.4-0.1l0,1.8c-0.1,0-0.3,0.1-0.6,0.2c-0.2,0.1-0.5,0.1-0.9,0.1
		c-0.3,0-0.7-0.1-1-0.2c-0.3-0.1-0.6-0.3-0.8-0.6c-0.2-0.3-0.4-0.6-0.6-1.1c-0.1-0.4-0.2-1-0.2-1.7v-8.1l-2,0v-1.7l2,0v-3.2
		L243.3,56.4z"/>
	<path class="st0" d="M254.5,71.6c-0.3,0.4-0.8,0.8-1.3,1c-0.5,0.2-1.1,0.4-1.8,0.4c-0.5,0-1-0.1-1.5-0.3c-0.4-0.2-0.8-0.5-1.1-0.9
		c-0.3-0.4-0.6-0.9-0.7-1.5c-0.2-0.6-0.3-1.4-0.3-2.2v-8.5l2.1,0v8.5c0,0.6,0.1,1.1,0.2,1.5c0.1,0.4,0.3,0.7,0.4,0.9
		c0.2,0.2,0.4,0.4,0.6,0.5c0.2,0.1,0.4,0.1,0.7,0.1c0.7,0,1.3-0.2,1.7-0.5c0.4-0.3,0.8-0.7,1-1.3v-9.7l2.2,0v13.1l-2,0L254.5,71.6z"
		/>
	<path class="st0" d="M265.3,61.6c-0.2,0-0.3-0.1-0.5-0.1c-0.1,0-0.3,0-0.5,0c-0.6,0-1.1,0.2-1.4,0.5c-0.4,0.3-0.7,0.8-0.9,1.3v9.4
		l-2.2,0V59.6l2.1,0l0,1.3c0.3-0.5,0.6-0.9,1-1.2c0.4-0.3,0.9-0.4,1.4-0.4c0.1,0,0.1,0,0.2,0c0.1,0,0.2,0,0.2,0c0.1,0,0.2,0,0.2,0.1
		c0.1,0,0.1,0,0.2,0.1L265.3,61.6z"/>
	<path class="st1" d="M266,71.6c0-0.4,0.1-0.7,0.3-1c0.2-0.3,0.6-0.4,1-0.4c0.5,0,0.8,0.1,1.1,0.4c0.2,0.3,0.4,0.6,0.4,1
		c0,0.4-0.1,0.7-0.4,0.9c-0.2,0.3-0.6,0.4-1.1,0.4c-0.5,0-0.8-0.1-1-0.4C266.2,72.3,266,72,266,71.6z"/>
</g>
</svg>
