<?xml version="1.0" encoding="utf-8"?>
<!-- Generator: Adobe Illustrator 19.0.1, SVG Export Plug-In . SVG Version: 6.00 Build 0)  -->
<svg version="1.1" id="Ebene_1" xmlns="http://www.w3.org/2000/svg" xmlns:xlink="http://www.w3.org/1999/xlink" x="0px" y="0px"
	 viewBox="24 -17.3 275 140" style="enable-background:new 24 -17.3 275 140;" xml:space="preserve">
<style type="text/css">
	.st0{fill:#003B5C;}
	.st1{fill:#FFFFFF;}
	.st2{fill:url(#SVGID_1_);}
	.st3{fill:url(#SVGID_2_);}
	.st4{clip-path:url(#SVGID_4_);}
	.st5{fill:url(#SVGID_5_);}
	.st6{opacity:0.8;fill:url(#SVGID_6_);enable-background:new    ;}
	.st7{opacity:0.8;fill:url(#SVGID_7_);enable-background:new    ;}
	.st8{opacity:0.6;fill:url(#SVGID_8_);enable-background:new    ;}
	.st9{opacity:0.24;fill:#66C5E3;enable-background:new    ;}
	.st10{opacity:0.5;fill:url(#SVGID_9_);enable-background:new    ;}
	.st11{opacity:0.8;fill:url(#SVGID_10_);enable-background:new    ;}
	.st12{opacity:0.8;fill:url(#SVGID_11_);enable-background:new    ;}
	.st13{opacity:0.8;fill:url(#SVGID_12_);enable-background:new    ;}
	.st14{fill:url(#SVGID_13_);}
	.st15{opacity:0.4;fill:url(#SVGID_14_);enable-background:new    ;}
	.st16{opacity:0.8;fill:url(#SVGID_15_);enable-background:new    ;}
	.st17{opacity:0.8;fill:url(#SVGID_16_);enable-background:new    ;}
	.st18{opacity:0.8;fill:url(#SVGID_17_);enable-background:new    ;}
	.st19{fill:url(#SVGID_18_);}
	.st20{fill:url(#SVGID_19_);}
	.st21{fill:url(#SVGID_20_);}
	.st22{fill:url(#SVGID_21_);}
	.st23{opacity:0.8;fill:url(#SVGID_22_);enable-background:new    ;}
	.st24{fill:url(#SVGID_23_);}
	.st25{opacity:0.4;fill:url(#SVGID_24_);enable-background:new    ;}
	.st26{opacity:0.4;fill:url(#SVGID_25_);enable-background:new    ;}
	.st27{opacity:0.4;fill:url(#SVGID_26_);enable-background:new    ;}
	.st28{opacity:0.8;fill:url(#SVGID_27_);enable-background:new    ;}
	.st29{fill:#6EC7E0;}
	.st30{fill:url(#SVGID_28_);}
	.st31{fill:url(#SVGID_29_);}
	.st32{fill:#45ADD0;}
	.st33{opacity:0.6;fill:#65C4F0;enable-background:new    ;}
	.st34{opacity:0.8;fill:url(#SVGID_30_);enable-background:new    ;}
	.st35{opacity:0.8;fill:url(#SVGID_31_);enable-background:new    ;}
	.st36{opacity:0.6;fill:#8FD1E7;enable-background:new    ;}
	.st37{opacity:0.6;fill:url(#SVGID_32_);enable-background:new    ;}
	.st38{opacity:0.8;fill:url(#SVGID_33_);enable-background:new    ;}
	.st39{fill:url(#SVGID_34_);}
	.st40{fill:#6DC8F2;}
	.st41{opacity:0.8;fill:url(#SVGID_35_);enable-background:new    ;}
	.st42{clip-path:url(#SVGID_37_);}
	.st43{opacity:0.2;fill:url(#SVGID_38_);enable-background:new    ;}
	.st44{opacity:0.8;fill:url(#SVGID_39_);enable-background:new    ;}
	.st45{opacity:0.8;fill:url(#SVGID_40_);enable-background:new    ;}
	.st46{opacity:0.8;fill:url(#SVGID_41_);enable-background:new    ;}
	.st47{opacity:0.2;fill:url(#SVGID_42_);enable-background:new    ;}
	.st48{opacity:0.3;fill:url(#SVGID_43_);enable-background:new    ;}
	.st49{fill:url(#SVGID_44_);}
	.st50{opacity:0.4;fill:url(#SVGID_45_);enable-background:new    ;}
	.st51{opacity:0.4;fill:url(#SVGID_46_);enable-background:new    ;}
	.st52{opacity:0.6;fill:url(#SVGID_47_);enable-background:new    ;}
</style>
<g>
	<path class="st0" d="M90.9,90.5h-1.5c-0.7,0-0.9-0.2-0.9-0.9V70.3c0-0.7,0.2-0.9,0.9-0.9h1.5c0.7,0,0.9,0.2,0.9,0.9v19.3
		C91.8,90.3,91.6,90.5,90.9,90.5z"/>
	<path class="st0" d="M101.8,75.4c4.3,0,6.5,2.2,6.5,5.7v4c0,3.5-2.3,5.7-6.5,5.7s-6.5-2.2-6.5-5.7v-4
		C95.3,77.6,97.6,75.4,101.8,75.4z M101.8,78.4c-2.1,0-3.2,1-3.2,2.7v4c0,1.7,1.2,2.7,3.2,2.7c2.1,0,3.2-1,3.2-2.7v-4
		C105.1,79.4,103.9,78.4,101.8,78.4z"/>
	<path class="st0" d="M117.9,75.4c3.4,0,5.4,1.6,6.1,3.7c0.2,0.7,0,1.1-0.6,1.3l-1.2,0.4c-0.7,0.3-1,0.1-1.3-0.6
		c-0.5-1.2-1.4-1.9-3.1-1.9c-2.1,0-3.1,1-3.1,2.8v4c0,1.8,1.1,2.8,3.1,2.8c1.7,0,2.6-0.7,3.1-2c0.3-0.7,0.5-0.8,1.3-0.6l1.3,0.4
		c0.7,0.3,0.9,0.6,0.6,1.3c-0.9,2.4-2.9,3.8-6.3,3.8c-4.3,0-6.3-2.2-6.3-5.8v-3.8C111.3,77.7,113.4,75.4,117.9,75.4z"/>
	<path class="st0" d="M132.7,75.4c4.7,0,6.1,2.5,6.1,5.8v7.2c0,1-0.2,1.3-1,1.6c-1.1,0.5-2.8,0.8-5.1,0.8c-5,0-6.3-1.7-6.3-4.6
		c0-3.3,1.9-4.4,6.4-4.4c1.1,0,2.2,0.1,2.7,0.1V81c0-1.8-0.7-2.8-2.8-2.8c-1.4,0-2.4,0.5-3,1.4c-0.4,0.6-0.6,0.7-1.2,0.4l-1.1-0.5
		c-0.7-0.3-0.8-0.6-0.5-1.3C127.8,76.6,129.7,75.4,132.7,75.4z M132.4,84.4c-2.2,0-2.7,0.7-2.7,1.9c0,1.1,0.5,1.9,2.7,1.9
		c1.5,0,2.3-0.2,2.8-0.3c0.3-0.1,0.3-0.1,0.3-0.4v-3C134.9,84.5,133.5,84.4,132.4,84.4z"/>
	<path class="st0" d="M144.9,90.5h-1.5c-0.7,0-0.9-0.2-0.9-0.9V70.3c0-0.7,0.2-0.9,0.9-0.9h1.5c0.7,0,0.9,0.2,0.9,0.9v19.3
		C145.8,90.3,145.6,90.5,144.9,90.5z"/>
	<path class="st0" d="M155.1,75.4c3.3,0,5.2,1.2,6.1,3c0.3,0.7,0.1,1-0.5,1.3l-1.3,0.5c-0.7,0.3-0.8,0.2-1.2-0.4
		c-0.5-0.9-1.2-1.5-3.1-1.5s-2.7,0.5-2.7,1.6c0,1.3,1.1,1.5,3.3,1.7c3.4,0.3,5.8,1.1,5.8,4.4c0,2.8-2.1,4.8-6.2,4.8
		c-3.3,0-5.4-1.2-6.3-3.4c-0.3-0.6-0.1-1,0.5-1.2l1.3-0.4c0.6-0.2,0.9-0.1,1.2,0.5c0.5,1.1,1.5,1.6,3.2,1.6c2,0,3-0.6,3-1.7
		c0-1.3-1.1-1.6-3.4-1.8c-2.8-0.3-5.8-0.7-5.8-4.4C149.2,77.3,151.2,75.4,155.1,75.4z"/>
	<path class="st0" d="M170.8,75.4c4.5,0,6.6,2.6,6.6,5.8v1.7c0,0.7-0.3,1.2-1.3,1.2h-8.6v1c0,1.9,1.2,2.8,3.2,2.8
		c1.7,0,2.8-0.6,3.4-1.5c0.5-0.6,0.8-0.7,1.5-0.3l1,0.5c0.7,0.3,0.7,0.8,0.3,1.4c-1,1.7-2.9,2.7-6.1,2.7c-4.7,0-6.5-2.6-6.5-6.1
		v-3.3C164.2,77.6,166.5,75.4,170.8,75.4z M170.8,78.2c-2.1,0-3.3,1.1-3.3,2.8v0.7h6.6v-0.6C174.1,79.3,172.9,78.2,170.8,78.2z"/>
	<path class="st0" d="M186.2,75.4c4.7,0,6.1,2.5,6.1,5.8v7.2c0,1-0.2,1.3-1,1.6c-1.1,0.5-2.8,0.8-5.1,0.8c-5,0-6.3-1.7-6.3-4.6
		c0-3.3,1.9-4.4,6.4-4.4c1.1,0,2.2,0.1,2.7,0.1V81c0-1.8-0.7-2.8-2.8-2.8c-1.4,0-2.4,0.5-3,1.4c-0.4,0.6-0.6,0.7-1.2,0.4l-1.1-0.5
		c-0.7-0.3-0.8-0.6-0.5-1.3C181.3,76.6,183.2,75.4,186.2,75.4z M185.9,84.4c-2.2,0-2.7,0.7-2.7,1.9c0,1.1,0.5,1.9,2.7,1.9
		c1.5,0,2.3-0.2,2.8-0.3c0.3-0.1,0.3-0.1,0.3-0.4v-3C188.4,84.5,187,84.4,185.9,84.4z"/>
	<path class="st0" d="M203.2,75.4c0.7,0,0.9,0.2,0.9,0.9v1.3c0,0.7-0.2,0.9-0.9,0.9h-1c-1.1,0-2,0.1-2.7,0.3
		c-0.2,0.1-0.3,0.2-0.3,0.3v10.4c0,0.7-0.2,0.9-0.9,0.9h-1.5c-0.7,0-0.9-0.2-0.9-0.9V77.9c0-0.9,0.2-1.3,1.1-1.6
		c1.1-0.4,2.7-0.8,5.3-0.9L203.2,75.4L203.2,75.4z"/>
	<path class="st0" d="M212.2,75.4c3.4,0,5.4,1.6,6.1,3.7c0.2,0.7,0,1.1-0.6,1.3l-1.2,0.4c-0.7,0.3-1,0.1-1.3-0.6
		c-0.5-1.2-1.4-1.9-3.1-1.9c-2.1,0-3.1,1-3.1,2.8v4c0,1.8,1.1,2.8,3.1,2.8c1.7,0,2.6-0.7,3.1-2c0.3-0.7,0.5-0.8,1.3-0.6l1.3,0.4
		c0.7,0.3,0.9,0.6,0.6,1.3c-0.9,2.4-2.9,3.8-6.3,3.8c-4.3,0-6.3-2.2-6.3-5.8v-3.8C205.7,77.7,207.7,75.4,212.2,75.4z"/>
	<path class="st0" d="M224.7,70.3v5.6c0.9-0.2,1.9-0.4,3.4-0.4c4.1,0,5.9,2.1,5.9,5.7v8.4c0,0.7-0.2,0.9-0.9,0.9h-1.6
		c-0.7,0-0.9-0.2-0.9-0.9v-8.3c0-1.8-1.1-2.8-3.1-2.8c-1.4,0-2.7,0.3-2.9,0.4v10.7c0,0.7-0.2,0.9-0.9,0.9h-1.5
		c-0.7,0-0.9-0.2-0.9-0.9V70.3c0-0.7,0.2-0.9,0.9-0.9h1.5C224.5,69.4,224.7,69.6,224.7,70.3z"/>
</g>
<g>
	<path class="st1" d="M173.5,45.1l-3.3,3.3c-8.7,8.6-17.4,0-17.4,0l-3.3-3.3c-8.7-8.6,0-17.2,0-17.2l3.3-3.3c8.7-8.6,17.4,0,17.4,0
		l3.3,3.3C182.2,36.5,173.5,45.1,173.5,45.1z"/>
	
		<linearGradient id="SVGID_1_" gradientUnits="userSpaceOnUse" x1="156.717" y1="-360.5027" x2="164.859" y2="-373.7535" gradientTransform="matrix(1 0 0 -1 0 -331.73)">
		<stop  offset="0.153" style="stop-color:#00B4EC"/>
		<stop  offset="0.49" style="stop-color:#05395C"/>
		<stop  offset="1" style="stop-color:#E2051D"/>
	</linearGradient>
	<path class="st2" d="M161.3,42.8c3.7,0,6.7-3,6.7-6.7s-3-6.7-6.7-6.7s-6.7,3-6.7,6.7C154.5,39.8,157.5,42.8,161.3,42.8"/>
	
		<linearGradient id="SVGID_2_" gradientUnits="userSpaceOnUse" x1="150.4029" y1="-350.7214" x2="173.4665" y2="-388.2562" gradientTransform="matrix(1 0 0 -1 0 -331.73)">
		<stop  offset="0" style="stop-color:#00B0EA"/>
		<stop  offset="0.1177" style="stop-color:#00A7E7"/>
		<stop  offset="0.204" style="stop-color:#008FC9"/>
		<stop  offset="0.3907" style="stop-color:#00527E"/>
		<stop  offset="0.46" style="stop-color:#003A60"/>
		<stop  offset="0.5916" style="stop-color:#4B2947"/>
		<stop  offset="0.7184" style="stop-color:#8C1A30"/>
		<stop  offset="0.8244" style="stop-color:#BA0F20"/>
		<stop  offset="0.9054" style="stop-color:#D70817"/>
		<stop  offset="0.9518" style="stop-color:#E20613"/>
	</linearGradient>
	<path class="st3" d="M180.2,25.6l-7.9-7.9c0,0-11.1-11.1-22.1,0l-7.8,7.9c0,0-11.1,11,0,22.1l7.9,7.9c0,0,11.1,11.1,22.1,0l7.9-7.9
		C180.2,47.7,191.3,36.7,180.2,25.6z M172.6,44.8l-3.1,3.1c-8.2,8.2-16.4,0-16.4,0l-3.1-3.1c-8.2-8.2,0-16.4,0-16.4l3.1-3.1
		c8.2-8.2,16.4,0,16.4,0l3.1,3.1C180.8,36.6,172.6,44.8,172.6,44.8z"/>
	<g>
		<g>
			<g>
				<g>
					<defs>
						<path id="SVGID_3_" d="M180.2,25.6l-7.9-7.9c0,0-11.1-11.2-22.2,0l-7.8,7.9c0,0-11.1,11,0,22.1l7.9,7.9c0,0,11.1,11.1,22.1,0
							l7.9-7.9C180.2,47.8,191.3,36.7,180.2,25.6z M173.1,44.3l-3.4,3.5c-8.2,8.2-15.9,0.6-15.9,0.6l-4-3.8
							c-8.2-8.1,0.2-16.2,0.1-16.3l3.1-3.1c8.2-8.1,16.4,0,16.4,0l3.1,3.1C180.7,36.6,173.1,44.3,173.1,44.3z"/>
					</defs>
					<clipPath id="SVGID_4_">
						<use xlink:href="#SVGID_3_"  style="overflow:visible;"/>
					</clipPath>
					<g class="st4">
						
							<linearGradient id="SVGID_5_" gradientUnits="userSpaceOnUse" x1="142.3834" y1="-350.4092" x2="173.5784" y2="-387.586" gradientTransform="matrix(1 0 0 -1 0 -331.73)">
							<stop  offset="2.090000e-02" style="stop-color:#9D0C26;stop-opacity:0"/>
							<stop  offset="0.1897" style="stop-color:#A81428;stop-opacity:0"/>
							<stop  offset="0.4889" style="stop-color:#C72A2D;stop-opacity:0"/>
							<stop  offset="0.7567" style="stop-color:#E74133;stop-opacity:0"/>
							<stop  offset="0.8272" style="stop-color:#E73E31;stop-opacity:0.2899"/>
							<stop  offset="0.8863" style="stop-color:#E6332C;stop-opacity:0.5327"/>
							<stop  offset="0.9412" style="stop-color:#E42222;stop-opacity:0.7584"/>
							<stop  offset="0.9934" style="stop-color:#E20A15;stop-opacity:0.9728"/>
							<stop  offset="1" style="stop-color:#E20613"/>
						</linearGradient>
						<path class="st5" d="M172.5,49.3c-10.8,10.6-21.6-0.2-21.6-0.2l0,0c-2.3,0.8-4.6,0.8-6.6,0.4l6.2,6.1c0,0,11,10.9,21.9,0
							l7.8-7.8c0,0,3.1-3.1,4.3-7.6l-4.6,4.6C177.3,47.4,174.9,48.7,172.5,49.3z"/>
						
							<linearGradient id="SVGID_6_" gradientUnits="userSpaceOnUse" x1="162.0867" y1="-371.4371" x2="174.9867" y2="-371.4371" gradientTransform="matrix(1 0 0 -1 0 -331.73)">
							<stop  offset="0" style="stop-color:#FFFFFF"/>
							<stop  offset="0.5534" style="stop-color:#FFF6F4;stop-opacity:0"/>
							<stop  offset="0.8564" style="stop-color:#FFF8F6;stop-opacity:0.6784"/>
							<stop  offset="0.9811" style="stop-color:#FFFDFD;stop-opacity:0.9576"/>
							<stop  offset="1" style="stop-color:#FFFFFF"/>
						</linearGradient>
						<path class="st6" d="M169.1,32.2c-0.2,6.4-4.9,11.1-4.9,11.1l-2,2c1.8,1.1,4.6,2.2,7.7,1.7l2.4-2.4c0,0,1.7-1.8,2.8-4.4
							c-0.5-1.7-1.5-3.5-3.3-5.3L169.1,32.2z"/>
						
							<linearGradient id="SVGID_7_" gradientUnits="userSpaceOnUse" x1="157.3374" y1="-346.0432" x2="180.401" y2="-383.578" gradientTransform="matrix(1 0 0 -1 0 -331.73)">
							<stop  offset="0" style="stop-color:#FFFFFF"/>
							<stop  offset="0.5534" style="stop-color:#FFF6F4;stop-opacity:0"/>
							<stop  offset="0.8564" style="stop-color:#FFF8F6;stop-opacity:0.6784"/>
							<stop  offset="0.9811" style="stop-color:#FFFDFD;stop-opacity:0.9576"/>
							<stop  offset="1" style="stop-color:#FFFFFF"/>
						</linearGradient>
						<path class="st7" d="M156.9,13.3c0.1-0.1,0.2-0.1,0.2-0.2c-0.3,0.1-0.5,0.2-0.8,0.2l0.3,0.3L156.9,13.3z"/>
						
							<linearGradient id="SVGID_8_" gradientUnits="userSpaceOnUse" x1="140.8797" y1="-356.7328" x2="163.9435" y2="-394.2679" gradientTransform="matrix(1 0 0 -1 0 -331.73)">
							<stop  offset="0" style="stop-color:#F7C1B2"/>
							<stop  offset="0.5588" style="stop-color:#F29A9A;stop-opacity:0"/>
							<stop  offset="0.7331" style="stop-color:#F29A98;stop-opacity:0.3951"/>
							<stop  offset="0.8049" style="stop-color:#F29991;stop-opacity:0.5579"/>
							<stop  offset="0.8579" style="stop-color:#F29985;stop-opacity:0.6779"/>
							<stop  offset="0.9016" style="stop-color:#F29773;stop-opacity:0.777"/>
							<stop  offset="0.9396" style="stop-color:#F2965C;stop-opacity:0.863"/>
							<stop  offset="0.973" style="stop-color:#F29441;stop-opacity:0.9388"/>
							<stop  offset="1" style="stop-color:#F29224"/>
						</linearGradient>
						<path class="st8" d="M156.7,51.4l-0.3,0.3c-2.8,3-3.6,3.4-3.6,3.4c1.4,1.2,7.4,6.2,14.1,1.4c-5.7-0.7-9.9-4.8-9.9-4.8
							L156.7,51.4z"/>
						<path class="st9" d="M137.6,39.4c1.4-4.3,4.4-7,4.4-7l3.2-3.2c1.3-4.6,4.4-7.7,4.4-7.7l2.1-2.1c-0.5-0.3-1.2-0.7-1.9-1
							l-7.3,7.3C142.4,25.7,136.2,31.7,137.6,39.4z"/>
						
							<linearGradient id="SVGID_9_" gradientUnits="userSpaceOnUse" x1="163.8326" y1="-342.0384" x2="186.9386" y2="-379.6423" gradientTransform="matrix(1 0 0 -1 0 -331.73)">
							<stop  offset="0" style="stop-color:#4EBFE0"/>
							<stop  offset="9.500000e-02" style="stop-color:#50BCDC;stop-opacity:0.8108"/>
							<stop  offset="0.1792" style="stop-color:#58B1D2;stop-opacity:0.643"/>
							<stop  offset="0.2595" style="stop-color:#649FC0;stop-opacity:0.4832"/>
							<stop  offset="0.3372" style="stop-color:#7585A6;stop-opacity:0.3284"/>
							<stop  offset="0.4131" style="stop-color:#8A6585;stop-opacity:0.1771"/>
							<stop  offset="0.4867" style="stop-color:#A53D5D;stop-opacity:3.050000e-02"/>
							<stop  offset="0.502" style="stop-color:#AB3454;stop-opacity:0"/>
							<stop  offset="0.9976" style="stop-color:#DE091E;stop-opacity:0"/>
						</linearGradient>
						<path class="st10" d="M162,19l0.6,0.6c5.2,1,8.9,4.7,8.9,4.7l7.9,7.9c1.2,1.2,2.2,2.5,2.9,3.7c0.8-2,1.1-4.5,0.1-7.2
							c-0.7-1-1.5-2.1-2.6-3.1l-6.7-7C170.4,17.1,166.2,16.2,162,19z"/>
						
							<linearGradient id="SVGID_10_" gradientUnits="userSpaceOnUse" x1="136.8731" y1="-359.1583" x2="159.4923" y2="-395.97" gradientTransform="matrix(1 0 0 -1 0 -331.73)">
							<stop  offset="0" style="stop-color:#1A77A4"/>
							<stop  offset="0.5562" style="stop-color:#ADDCED;stop-opacity:0"/>
							<stop  offset="0.7203" style="stop-color:#ABDAEB;stop-opacity:0.3697"/>
							<stop  offset="0.7879" style="stop-color:#A4D3E5;stop-opacity:0.522"/>
							<stop  offset="0.8377" style="stop-color:#98C8DB;stop-opacity:0.6343"/>
							<stop  offset="0.8788" style="stop-color:#86B7CB;stop-opacity:0.727"/>
							<stop  offset="0.9146" style="stop-color:#6FA1B8;stop-opacity:0.8075"/>
							<stop  offset="0.9466" style="stop-color:#5386A0;stop-opacity:0.8796"/>
							<stop  offset="0.9751" style="stop-color:#326783;stop-opacity:0.944"/>
							<stop  offset="1" style="stop-color:#0F4565"/>
						</linearGradient>
						<path class="st11" d="M149.9,44.8c-1.5-1.5-2.7-3.9-3.3-5.3l-0.1,0.3c-0.8,2.1-1.1,4.8,0.1,7.6c1.4-0.1,2.7-0.7,4.2-1.6
							L149.9,44.8z"/>
						
							<linearGradient id="SVGID_11_" gradientUnits="userSpaceOnUse" x1="162.9203" y1="-348.9514" x2="185.9838" y2="-386.4862" gradientTransform="matrix(1 0 0 -1 0 -331.73)">
							<stop  offset="0" style="stop-color:#FFFFFF"/>
							<stop  offset="0.5534" style="stop-color:#FFF6F4;stop-opacity:0"/>
							<stop  offset="0.8564" style="stop-color:#FFF8F6;stop-opacity:0.6784"/>
							<stop  offset="0.9811" style="stop-color:#FFFDFD;stop-opacity:0.9576"/>
							<stop  offset="1" style="stop-color:#FFFFFF"/>
						</linearGradient>
						<path class="st12" d="M169.1,32.2l2.7,2.7c1.8,1.8,2.8,3.6,3.3,5.3c1.3-3.1,1.6-7.6-2.8-12l-3.1-3.1c0,0-1.4-1.4-3.5-2.4
							C168.2,26,169.1,29.3,169.1,32.2z"/>
						
							<linearGradient id="SVGID_12_" gradientUnits="userSpaceOnUse" x1="152.5711" y1="-355.3106" x2="175.6346" y2="-392.8454" gradientTransform="matrix(1 0 0 -1 0 -331.73)">
							<stop  offset="0" style="stop-color:#FFFFFF"/>
							<stop  offset="0.5534" style="stop-color:#FFF6F4;stop-opacity:0"/>
							<stop  offset="0.8564" style="stop-color:#FFF8F6;stop-opacity:0.6784"/>
							<stop  offset="0.9811" style="stop-color:#FFFDFD;stop-opacity:0.9576"/>
							<stop  offset="1" style="stop-color:#FFFFFF"/>
						</linearGradient>
						<path class="st13" d="M159.4,28.1c-0.6-1.3-1.5-2.7-2.9-4.1c-0.2,0.2-2.9,3-3.5,6.9C155.3,29,157.4,28.3,159.4,28.1z"/>
						
							<linearGradient id="SVGID_13_" gradientUnits="userSpaceOnUse" x1="144.7286" y1="-360.6809" x2="167.7921" y2="-398.2157" gradientTransform="matrix(1 0 0 -1 0 -331.73)">
							<stop  offset="0" style="stop-color:#E73374"/>
							<stop  offset="0.5526" style="stop-color:#D74B3F;stop-opacity:0.2"/>
							<stop  offset="0.7258" style="stop-color:#D54A3E;stop-opacity:0.5097"/>
							<stop  offset="0.7972" style="stop-color:#CE463B;stop-opacity:0.6373"/>
							<stop  offset="0.8498" style="stop-color:#C24036;stop-opacity:0.7314"/>
							<stop  offset="0.8932" style="stop-color:#B0382F;stop-opacity:0.8091"/>
							<stop  offset="0.9309" style="stop-color:#992C26;stop-opacity:0.8765"/>
							<stop  offset="0.9647" style="stop-color:#7D1E1B;stop-opacity:0.9369"/>
							<stop  offset="0.9949" style="stop-color:#5C0E0E;stop-opacity:0.9908"/>
							<stop  offset="1" style="stop-color:#560B0B"/>
						</linearGradient>
						<path class="st14" d="M167.3,56.2c-7.6,5.5-14.6-1.6-14.6-1.6l-0.1-0.1c-0.8,0.4-1.6,0.8-2.4,1l0,0c0,0,10.9,10.9,21.9,0.2
							C170.5,56.3,168.8,56.4,167.3,56.2z"/>
						
							<linearGradient id="SVGID_14_" gradientUnits="userSpaceOnUse" x1="138.9865" y1="-364.7314" x2="161.2504" y2="-400.9648" gradientTransform="matrix(1 0 0 -1 0 -331.73)">
							<stop  offset="0" style="stop-color:#ADDCED"/>
							<stop  offset="0.5534" style="stop-color:#ADDCED;stop-opacity:0"/>
							<stop  offset="0.9349" style="stop-color:#ADDCED;stop-opacity:0.8543"/>
							<stop  offset="1" style="stop-color:#ADDCED"/>
						</linearGradient>
						<path class="st15" d="M146.5,47.3c-1.2-2.8-0.9-5.5-0.1-7.6c-2-2-3.3-5.2-2.5-9.4c0,0-5.3,4.4-6.4,9.1
							c0.4,2.1,1.4,4.4,3.2,6.7C142.4,46.9,144.3,47.5,146.5,47.3z"/>
						
							<linearGradient id="SVGID_15_" gradientUnits="userSpaceOnUse" x1="164.312" y1="-348.0549" x2="187.8338" y2="-386.3355" gradientTransform="matrix(1 0 0 -1 0 -331.73)">
							<stop  offset="0" style="stop-color:#55B7D7"/>
							<stop  offset="6.940000e-02" style="stop-color:#59A7C7;stop-opacity:0.9065"/>
							<stop  offset="0.2831" style="stop-color:#637B9A;stop-opacity:0.6186"/>
							<stop  offset="0.4741" style="stop-color:#6A5B7A;stop-opacity:0.3613"/>
							<stop  offset="0.6336" style="stop-color:#6E4766;stop-opacity:0.1463"/>
							<stop  offset="0.7422" style="stop-color:#70405F;stop-opacity:0"/>
							<stop  offset="0.8042" style="stop-color:#774266;stop-opacity:0"/>
							<stop  offset="0.8962" style="stop-color:#89487A;stop-opacity:0"/>
							<stop  offset="1" style="stop-color:#A55299;stop-opacity:0"/>
						</linearGradient>
						<path class="st16" d="M166.1,23c2.2,1.1,3.5,2.4,3.5,2.4l3.1,3.1c4.4,4.4,4.1,8.8,2.8,12c0.4,1.5,0.4,2.9,0.2,4.2
							c0.3-0.3,0.6-0.5,0.9-0.8l3.1-3.1c0,0,1.8-1.8,2.9-4.7c-0.7-1.2-1.7-2.4-2.9-3.7l-7.9-7.9c0,0-4.3-4-9.5-5v0.1l0.3,0.1
							l0.2,0.1C164.2,20.8,165.7,22.5,166.1,23z"/>
						
							<linearGradient id="SVGID_16_" gradientUnits="userSpaceOnUse" x1="142.5848" y1="-355.2107" x2="165.6484" y2="-392.7455" gradientTransform="matrix(1 0 0 -1 0 -331.73)">
							<stop  offset="0" style="stop-color:#FFFFFF"/>
							<stop  offset="0.5534" style="stop-color:#FFF6F4;stop-opacity:0"/>
							<stop  offset="0.8564" style="stop-color:#FFF8F6;stop-opacity:0.6784"/>
							<stop  offset="0.9811" style="stop-color:#FFFDFD;stop-opacity:0.9576"/>
							<stop  offset="1" style="stop-color:#FFFFFF"/>
						</linearGradient>
						<path class="st17" d="M149,43.3l2.1,2.1c0.8-0.5,1.5-1.1,2.3-1.9l3.1-3.1l0,0c-3.3-3.4-4-6.7-3.5-9.5"/>
						
							<linearGradient id="SVGID_17_" gradientUnits="userSpaceOnUse" x1="146.2726" y1="-352.9448" x2="169.3362" y2="-390.4795" gradientTransform="matrix(1 0 0 -1 0 -331.73)">
							<stop  offset="0" style="stop-color:#FFFFFF"/>
							<stop  offset="0.5534" style="stop-color:#FFF6F4;stop-opacity:0"/>
							<stop  offset="0.8564" style="stop-color:#FFF8F6;stop-opacity:0.6784"/>
							<stop  offset="0.9811" style="stop-color:#FFFDFD;stop-opacity:0.9576"/>
							<stop  offset="1" style="stop-color:#FFFFFF"/>
						</linearGradient>
						<path class="st18" d="M162.1,45.4l-5.2,5.2c3.1,1.3,7.6,1.8,12.1-2.8l0.7-0.7C166.7,47.6,163.9,46.5,162.1,45.4z"/>
						
							<linearGradient id="SVGID_18_" gradientUnits="userSpaceOnUse" x1="162.0294" y1="-343.2656" x2="185.1361" y2="-380.8705" gradientTransform="matrix(1 0 0 -1 0 -331.73)">
							<stop  offset="2.800000e-03" style="stop-color:#74C6E9"/>
							<stop  offset="0.5534" style="stop-color:#51B8E9;stop-opacity:0"/>
							<stop  offset="0.8893" style="stop-color:#52B8E7;stop-opacity:0.752"/>
							<stop  offset="1" style="stop-color:#53B8E2"/>
						</linearGradient>
						<path class="st19" d="M156.6,13.6L162,19c4.2-2.8,8.5-1.9,11.1-0.5l-1.1-1.1c0,0-6.7-6.5-14.9-4.3c-0.1,0.1-0.2,0.1-0.2,0.2
							L156.6,13.6z"/>
						
							<linearGradient id="SVGID_19_" gradientUnits="userSpaceOnUse" x1="143.0167" y1="-356.125" x2="153.5057" y2="-356.125" gradientTransform="matrix(1 0 0 -1 0 -331.73)">
							<stop  offset="0" style="stop-color:#5BC4F1"/>
							<stop  offset="0.4635" style="stop-color:#5DC5F1;stop-opacity:0.7682"/>
							<stop  offset="0.6338" style="stop-color:#64C7F2;stop-opacity:0.6831"/>
							<stop  offset="0.7557" style="stop-color:#70CAF3;stop-opacity:0.6222"/>
							<stop  offset="0.8545" style="stop-color:#81D0F4;stop-opacity:0.5727"/>
							<stop  offset="0.9383" style="stop-color:#96D6F6;stop-opacity:0.5308"/>
							<stop  offset="1" style="stop-color:#ACDDF8;stop-opacity:0.5"/>
						</linearGradient>
						<path class="st20" d="M143.1,30.3l6.2-6.1c1.4-1.4,2.8-2.5,4.2-3.2l-0.1-0.1c0,0-1.9-1.8-3.8-2.5l-4,4.3
							C145.6,22.6,142.5,25.8,143.1,30.3z"/>
						
							<linearGradient id="SVGID_20_" gradientUnits="userSpaceOnUse" x1="148.6262" y1="-350.5731" x2="172.4155" y2="-389.289" gradientTransform="matrix(1 0 0 -1 0 -331.73)">
							<stop  offset="0" style="stop-color:#E73374"/>
							<stop  offset="0.5694" style="stop-color:#F5B0A5;stop-opacity:2.000000e-02"/>
							<stop  offset="0.7288" style="stop-color:#F4AEA3;stop-opacity:0.3828"/>
							<stop  offset="0.7945" style="stop-color:#F2A79D;stop-opacity:0.5323"/>
							<stop  offset="0.8429" style="stop-color:#EE9B91;stop-opacity:0.6425"/>
							<stop  offset="0.8829" style="stop-color:#E98981;stop-opacity:0.7335"/>
							<stop  offset="0.9176" style="stop-color:#E2726C;stop-opacity:0.8125"/>
							<stop  offset="0.9487" style="stop-color:#D95652;stop-opacity:0.8833"/>
							<stop  offset="0.9764" style="stop-color:#CF3535;stop-opacity:0.9464"/>
							<stop  offset="1" style="stop-color:#C41315"/>
						</linearGradient>
						<path class="st21" d="M169.6,48c-4.5,4.5-9,4.1-12.1,2.8l-0.4-0.1l0.4,0.8c0,0,4.1,4.1,9.9,4.8c0.6-0.4,1.2-0.9,1.8-1.6
							l3.1-3.1c0,0,2.9-2.9,3.5-6.9c-1.9,1.6-3.7,2.4-5.4,2.7L169.6,48z"/>
						
							<linearGradient id="SVGID_21_" gradientUnits="userSpaceOnUse" x1="167.6441" y1="-340.3805" x2="190.7077" y2="-377.9153" gradientTransform="matrix(1 0 0 -1 0 -331.73)">
							<stop  offset="0" style="stop-color:#E73374"/>
							<stop  offset="0.5526" style="stop-color:#9A345E;stop-opacity:0"/>
							<stop  offset="0.7941" style="stop-color:#9B335C;stop-opacity:0.5398"/>
							<stop  offset="0.8936" style="stop-color:#A02F55;stop-opacity:0.7622"/>
							<stop  offset="0.9667" style="stop-color:#A82749;stop-opacity:0.9255"/>
							<stop  offset="1" style="stop-color:#AD2240"/>
						</linearGradient>
						<path class="st22" d="M182.5,36.2c1,1.6,1.8,3,2.1,4.5c1.1-3.3,1.2-7.5-1.7-11.8C183.8,31.5,183.2,34.2,182.5,36.2z"/>
						
							<linearGradient id="SVGID_22_" gradientUnits="userSpaceOnUse" x1="148.043" y1="-358.0298" x2="172.4046" y2="-397.6771" gradientTransform="matrix(1 0 0 -1 0 -331.73)">
							<stop  offset="0" style="stop-color:#FFFFFF"/>
							<stop  offset="0.5534" style="stop-color:#FFF6F4;stop-opacity:0"/>
							<stop  offset="0.8564" style="stop-color:#FFF8F6;stop-opacity:0.6784"/>
							<stop  offset="0.9811" style="stop-color:#FFFDFD;stop-opacity:0.9576"/>
							<stop  offset="1" style="stop-color:#FFFFFF"/>
						</linearGradient>
						<path class="st23" d="M152.1,31.7c0.3-0.3,0.6-0.6,0.9-0.8c0.6-3.9,3.3-6.7,3.5-6.9l0,0l-1.1-1.1c-0.9,0.5-1.9,1.3-2.8,2.2
							l-3.1,3.1c0,0-4.7,5.4-3,11.5c1.1-2.7,2.5-4.9,2.5-4.9L152.1,31.7z"/>
						
							<linearGradient id="SVGID_23_" gradientUnits="userSpaceOnUse" x1="145.1049" y1="-353.2483" x2="169.4664" y2="-392.8955" gradientTransform="matrix(1 0 0 -1 0 -331.73)">
							<stop  offset="0" style="stop-color:#ADDCED"/>
							<stop  offset="0.5534" style="stop-color:#ADDCED;stop-opacity:0"/>
							<stop  offset="0.9349" style="stop-color:#ADDCED;stop-opacity:0.8543"/>
							<stop  offset="1" style="stop-color:#ADDCED"/>
						</linearGradient>
						<path class="st24" d="M152.1,31.7c0.3-0.3,0.6-0.6,0.9-0.8c0.6-3.9,3.3-6.7,3.5-6.9l0,0l-1.1-1.1c-0.9,0.5-1.9,1.3-2.8,2.2
							l-3.1,3.1c0,0-4.7,5.4-3,11.5c1.1-2.7,2.5-4.9,2.5-4.9L152.1,31.7z"/>
						
							<linearGradient id="SVGID_24_" gradientUnits="userSpaceOnUse" x1="145.1162" y1="-353.5616" x2="168.1322" y2="-391.019" gradientTransform="matrix(1 0 0 -1 0 -331.73)">
							<stop  offset="0" style="stop-color:#ADDCED"/>
							<stop  offset="0.5534" style="stop-color:#ADDCED;stop-opacity:0"/>
							<stop  offset="0.9349" style="stop-color:#ADDCED;stop-opacity:0.8543"/>
							<stop  offset="1" style="stop-color:#ADDCED"/>
						</linearGradient>
						<path class="st25" d="M149.5,28.3l3.1-3.1c0.9-0.9,1.9-1.7,2.8-2.2l-1.9-1.9c-1.4,0.8-2.8,1.8-4.2,3.2l-4.7,4.7
							c-0.9,3.1,0.9,8.3,1.9,10.5C144.8,34.3,149.5,28.3,149.5,28.3z"/>
						
							<linearGradient id="SVGID_25_" gradientUnits="userSpaceOnUse" x1="147.8081" y1="-358.2909" x2="171.5166" y2="-396.8752" gradientTransform="matrix(1 0 0 -1 0 -331.73)">
							<stop  offset="0" style="stop-color:#ADDCED"/>
							<stop  offset="0.5534" style="stop-color:#ADDCED;stop-opacity:0"/>
							<stop  offset="0.9349" style="stop-color:#ADDCED;stop-opacity:0.8543"/>
							<stop  offset="1" style="stop-color:#ADDCED"/>
						</linearGradient>
						<path class="st26" d="M149.4,28.3l3.8-3.8c0.6-0.7,2.2-1.6,2.2-1.6l-1.9-1.9c-1.4,0.8-3.1,1.9-4.5,3.4l-4.7,4.7
							c-2,6.9,2.1,10.7,2.2,10.7C144.8,33.7,149.4,28.3,149.4,28.3z"/>
						
							<linearGradient id="SVGID_26_" gradientUnits="userSpaceOnUse" x1="148.0395" y1="-358.0964" x2="171.0163" y2="-395.49" gradientTransform="matrix(1 0 0 -1 0 -331.73)">
							<stop  offset="0" style="stop-color:#ACDDF8"/>
							<stop  offset="0.5534" style="stop-color:#ACDDF8;stop-opacity:0"/>
							<stop  offset="0.9349" style="stop-color:#ACDDF8;stop-opacity:0.8543"/>
							<stop  offset="1" style="stop-color:#ACDDF8"/>
						</linearGradient>
						<path class="st27" d="M149.7,28.3l3.2-3.2c0.9-0.9,1.6-1.7,2.6-2.2l-1.9-1.9c-1.4,0.8-2.5,1.8-4,3.2l-4.7,4.7
							c-1.2,6.6,1.6,10.4,1.6,10.4C144.8,33.3,149.7,28.3,149.7,28.3z"/>
						
							<linearGradient id="SVGID_27_" gradientUnits="userSpaceOnUse" x1="145.2918" y1="-339.5808" x2="168.3553" y2="-377.1156" gradientTransform="matrix(1 0 0 -1 0 -331.73)">
							<stop  offset="0" style="stop-color:#FFFFFF"/>
							<stop  offset="0.5534" style="stop-color:#FFF6F4;stop-opacity:0"/>
							<stop  offset="0.8564" style="stop-color:#FFF8F6;stop-opacity:0.6784"/>
							<stop  offset="0.9811" style="stop-color:#FFFDFD;stop-opacity:0.9576"/>
							<stop  offset="1" style="stop-color:#FFFFFF"/>
						</linearGradient>
						<path class="st28" d="M156.6,40.4L156.6,40.4l3.2,3.2c0,0,0.9,0.9,2.4,1.8l2-2c0,0,4.7-4.7,4.9-11.1l-0.5-0.5c0,0-4-4-9.1-3.6
							C162.2,34.6,156.8,40.2,156.6,40.4z"/>
						<path class="st29" d="M162.5,19.5L162,19c-0.2,0.1-0.3,0.2-0.5,0.4C161.8,19.4,162.1,19.5,162.5,19.5z"/>
						
							<linearGradient id="SVGID_28_" gradientUnits="userSpaceOnUse" x1="131.5324" y1="-347.9161" x2="154.8911" y2="-385.9314" gradientTransform="matrix(1 0 0 -1 0 -331.73)">
							<stop  offset="0" style="stop-color:#013854"/>
							<stop  offset="0.4853" style="stop-color:#8A345F;stop-opacity:0"/>
							<stop  offset="0.7022" style="stop-color:#8C335E;stop-opacity:0.1264"/>
							<stop  offset="0.7915" style="stop-color:#932F59;stop-opacity:0.1785"/>
							<stop  offset="0.8574" style="stop-color:#9F2950;stop-opacity:0.2169"/>
							<stop  offset="0.9117" style="stop-color:#B11F44;stop-opacity:0.2485"/>
							<stop  offset="0.9584" style="stop-color:#C71434;stop-opacity:0.2757"/>
							<stop  offset="1" style="stop-color:#E30521;stop-opacity:0.3"/>
						</linearGradient>
						<path class="st30" d="M156.9,50.6l-1.2-0.7c-1.9-1-2.6-1.9-2.6-1.9l-2.3-2.3c-1.5,0.9-2.8,1.5-4.2,1.6
							c0.6,1.3,1.9,3.1,3.2,4.5l2.9,2.8c1.3-0.9,2.2-2,3.6-3.4L156.9,50.6z"/>
						
							<linearGradient id="SVGID_29_" gradientUnits="userSpaceOnUse" x1="147.2128" y1="-338.4004" x2="170.2764" y2="-375.9352" gradientTransform="matrix(1 0 0 -1 0 -331.73)">
							<stop  offset="0" style="stop-color:#ADDCED"/>
							<stop  offset="0.5534" style="stop-color:#ADDCED;stop-opacity:0"/>
							<stop  offset="0.9349" style="stop-color:#ADDCED;stop-opacity:0.8543"/>
							<stop  offset="1" style="stop-color:#ADDCED"/>
						</linearGradient>
						<path class="st31" d="M149.2,18.1c0.7,0.3,1.3,0.6,1.9,1l5.5-5.5l-0.3-0.3c-2.1,0.7-4.3,2-6.5,4.2L149.2,18.1z"/>
						<path class="st32" d="M159.7,20.9l-0.7,0.7c2.5-0.4,5.5,0.4,6.7,1.1c-0.4-0.5-1-1-1.5-1.5l-1.7-1.7c-0.3-0.1-0.7-0.1-1-0.2
							C160.9,19.8,160.3,20.3,159.7,20.9z"/>
						<path class="st33" d="M158.8,21.9c1.8-0.6,4.6-0.1,6,0.4c0.5,0.2,1.1,0.4,1.2,0.5c-1.1-1.5-2.9-3-2.9-3
							c-0.3-0.2-1.1-0.4-1.5-0.4C160.4,20.1,158.8,21.9,158.8,21.9z"/>
						
							<linearGradient id="SVGID_30_" gradientUnits="userSpaceOnUse" x1="133.6799" y1="-360.7536" x2="156.9795" y2="-398.6726" gradientTransform="matrix(1 0 0 -1 0 -331.73)">
							<stop  offset="0" style="stop-color:#ADDCED"/>
							<stop  offset="0.5508" style="stop-color:#ADDCED;stop-opacity:0"/>
							<stop  offset="0.9345" style="stop-color:#ADDCED;stop-opacity:0.8543"/>
							<stop  offset="1" style="stop-color:#ADDCED"/>
						</linearGradient>
						<path class="st34" d="M149.3,51.3c-1.4-1.4-2.2-2.6-2.7-4c-2.2,0.1-4.2-0.5-5.7-1.3c0.4,0.6,0.8,1,1.3,1.5l8.1,8.1
							c0.8-0.3,1.6-0.6,2.4-1L149.3,51.3z"/>
						
							<linearGradient id="SVGID_31_" gradientUnits="userSpaceOnUse" x1="127.4401" y1="-350.6989" x2="150.6867" y2="-388.5313" gradientTransform="matrix(1 0 0 -1 0 -331.73)">
							<stop  offset="4.600000e-03" style="stop-color:#013854"/>
							<stop  offset="0.4907" style="stop-color:#8A345F;stop-opacity:0"/>
							<stop  offset="0.7053" style="stop-color:#8C335E;stop-opacity:0.2949"/>
							<stop  offset="0.7937" style="stop-color:#932F59;stop-opacity:0.4165"/>
							<stop  offset="0.8589" style="stop-color:#9F2950;stop-opacity:0.506"/>
							<stop  offset="0.9126" style="stop-color:#B11F44;stop-opacity:0.5799"/>
							<stop  offset="0.9588" style="stop-color:#C71434;stop-opacity:0.6434"/>
							<stop  offset="1" style="stop-color:#E30521;stop-opacity:0.7"/>
						</linearGradient>
						<path class="st35" d="M149.7,51.7c-1.4-1.4-2.6-3-3.1-4.4c-2.2,0.1-4.2-0.5-5.7-1.2c0.4,0.6,0.8,1,1.3,1.5l8.1,8.1
							c0.8-0.3,1.6-0.6,2.4-1L149.7,51.7z"/>
						<path class="st36" d="M153.5,21c2.8-1.5,5.5-1.9,7.9-1.6c0.2-0.1,0.3-0.3,0.5-0.4l-5.4-5.4l-5.5,5.5c1.5,0.9,2.3,1.8,2.3,1.8
							L153.5,21z"/>
						
							<linearGradient id="SVGID_32_" gradientUnits="userSpaceOnUse" x1="138.7535" y1="-321.7224" x2="185.3044" y2="-397.4816" gradientTransform="matrix(1 0 0 -1 0 -331.73)">
							<stop  offset="0" style="stop-color:#D7EDFC"/>
							<stop  offset="0.5534" style="stop-color:#ACDDF8;stop-opacity:0"/>
							<stop  offset="0.7634" style="stop-color:#AEDEF8;stop-opacity:0.4702"/>
							<stop  offset="0.8499" style="stop-color:#B5E0F8;stop-opacity:0.6639"/>
							<stop  offset="0.9137" style="stop-color:#C1E5F8;stop-opacity:0.8067"/>
							<stop  offset="0.9659" style="stop-color:#D3ECF8;stop-opacity:0.9237"/>
							<stop  offset="1" style="stop-color:#E3F2F8"/>
						</linearGradient>
						<path class="st37" d="M153.5,21c2.8-1.5,5.5-1.9,7.9-1.6c0.2-0.1,0.3-0.3,0.5-0.4l-6.7-13.5l-6,12.6c1.5,0.9,4.1,2.8,4.1,2.8
							L153.5,21z"/>
						
							<linearGradient id="SVGID_33_" gradientUnits="userSpaceOnUse" x1="156.5272" y1="-352.8797" x2="179.5907" y2="-390.4145" gradientTransform="matrix(1 0 0 -1 0 -331.73)">
							<stop  offset="0" style="stop-color:#FFFFFF"/>
							<stop  offset="0.5534" style="stop-color:#FFF6F4;stop-opacity:0"/>
							<stop  offset="0.8564" style="stop-color:#FFF8F6;stop-opacity:0.6784"/>
							<stop  offset="0.9811" style="stop-color:#FFFDFD;stop-opacity:0.9576"/>
							<stop  offset="1" style="stop-color:#FFFFFF"/>
						</linearGradient>
						<path class="st38" d="M156.6,24L156.6,24L156.6,24l2.4-2.4c-1.1,0.2-2.3,0.6-3.5,1.3L156.6,24z"/>
						
							<linearGradient id="SVGID_34_" gradientUnits="userSpaceOnUse" x1="154.7595" y1="-347.6272" x2="177.823" y2="-385.162" gradientTransform="matrix(1 0 0 -1 0 -331.73)">
							<stop  offset="0" style="stop-color:#ADDCED"/>
							<stop  offset="0.5534" style="stop-color:#ADDCED;stop-opacity:0"/>
							<stop  offset="0.9349" style="stop-color:#ADDCED;stop-opacity:0.8543"/>
							<stop  offset="1" style="stop-color:#ADDCED"/>
						</linearGradient>
						<path class="st39" d="M159,21.6l0.7-0.7c0.6-0.6,1.1-1.1,1.7-1.5c-2.4-0.3-5.1,0.1-7.9,1.6l1.9,1.9
							C156.7,22.2,157.8,21.8,159,21.6z"/>
						<path class="st40" d="M158.8,21.9l1.1-1.1c0.5-0.5,1.1-1,1.7-1.4c-2.3-0.3-5.3,0.2-7.9,1.6l2.1,2.2
							C156.8,22.5,157.7,22.2,158.8,21.9z"/>
						
							<linearGradient id="SVGID_35_" gradientUnits="userSpaceOnUse" x1="149.3144" y1="-347.6118" x2="164.6148" y2="-374.1128" gradientTransform="matrix(1 0 0 -1 0 -331.73)">
							<stop  offset="0" style="stop-color:#A0D9F7"/>
							<stop  offset="0.5061" style="stop-color:#BCE3F9;stop-opacity:0"/>
						</linearGradient>
						<path class="st41" d="M151.1,38.9l-2.2-2.4c-6.9-7.5,0-14.9,0-14.9l2.6-2.9c3.8-4.1,7.6-3.7,10.2-2.5l0.5-0.5
							c1.8-2,3.7-3.2,5.5-3.9l0,0c0,0-9.3-10.1-18.5,0l-6.6,7.2c0,0-9.3,10.1,0,20.1l6.6,7.2c0,0,3.1,3.3,7.5,4.2l-1.4-1.5
							C152,45.5,151,42,151.1,38.9z"/>
					</g>
				</g>
			</g>
		</g>
	</g>
	<g>
		<g>
			<g>
				<g>
					<defs>
						<path id="SVGID_36_" d="M161.2,42.8c3.7,0,6.7-3,6.7-6.7s-3-6.7-6.7-6.7s-6.7,3-6.7,6.7S157.5,42.8,161.2,42.8"/>
					</defs>
					<clipPath id="SVGID_37_">
						<use xlink:href="#SVGID_36_"  style="overflow:visible;"/>
					</clipPath>
					<g class="st42">
						
							<linearGradient id="SVGID_38_" gradientUnits="userSpaceOnUse" x1="156.2578" y1="-361.789" x2="179.3213" y2="-399.3238" gradientTransform="matrix(1 0 0 -1 0 -331.73)">
							<stop  offset="0" style="stop-color:#ADDCED"/>
							<stop  offset="0.5534" style="stop-color:#ADDCED;stop-opacity:0"/>
							<stop  offset="0.9349" style="stop-color:#ADDCED;stop-opacity:0.8543"/>
							<stop  offset="1" style="stop-color:#ADDCED"/>
						</linearGradient>
						<path class="st43" d="M163.1,34.6c-0.6-1.3-1.5-2.7-2.9-4.1c-0.2,0.2-2.9,3-3.5,6.9C159,35.5,161.1,34.7,163.1,34.6z"/>
						
							<linearGradient id="SVGID_39_" gradientUnits="userSpaceOnUse" x1="146.0556" y1="-361.8219" x2="169.1192" y2="-399.3567" gradientTransform="matrix(1 0 0 -1 0 -331.73)">
							<stop  offset="0" style="stop-color:#FFFFFF"/>
							<stop  offset="0.5534" style="stop-color:#FFF6F4;stop-opacity:0"/>
							<stop  offset="0.8564" style="stop-color:#FFF8F6;stop-opacity:0.6784"/>
							<stop  offset="0.9811" style="stop-color:#FFFDFD;stop-opacity:0.9576"/>
							<stop  offset="1" style="stop-color:#FFFFFF"/>
						</linearGradient>
						<path class="st44" d="M154.8,51.9c0.8-0.5,1.5-1.1,2.3-1.9l3.1-3.1l0,0c-3.3-3.4-4-6.7-3.5-9.5c-0.3,0.3-0.6,0.5-0.9,0.8
							l-3.1,3.1c0,0-1.7,1.8-2.8,4.4c0.1,0.3,0.2,0.7,0.3,1c0.7,1,1.5,2,2.5,3L154.8,51.9z"/>
						
							<linearGradient id="SVGID_40_" gradientUnits="userSpaceOnUse" x1="141.6459" y1="-364.4287" x2="164.7095" y2="-401.9635" gradientTransform="matrix(1 0 0 -1 0 -331.73)">
							<stop  offset="0" style="stop-color:#FFFFFF"/>
							<stop  offset="0.5534" style="stop-color:#FFF6F4;stop-opacity:0"/>
							<stop  offset="0.8564" style="stop-color:#FFF8F6;stop-opacity:0.6784"/>
							<stop  offset="0.9811" style="stop-color:#FFFDFD;stop-opacity:0.9576"/>
							<stop  offset="1" style="stop-color:#FFFFFF"/>
						</linearGradient>
						<path class="st45" d="M149.9,45.8c0,0.1-0.1,0.2-0.1,0.3c0.1,0.2,0.3,0.5,0.4,0.7C150.1,46.5,150,46.1,149.9,45.8z"/>
						
							<linearGradient id="SVGID_41_" gradientUnits="userSpaceOnUse" x1="141.6917" y1="-364.5032" x2="164.7552" y2="-402.038" gradientTransform="matrix(1 0 0 -1 0 -331.73)">
							<stop  offset="0" style="stop-color:#FFFFFF"/>
							<stop  offset="0.5534" style="stop-color:#FFF6F4;stop-opacity:0"/>
							<stop  offset="0.8564" style="stop-color:#FFF8F6;stop-opacity:0.6784"/>
							<stop  offset="0.9811" style="stop-color:#FFFDFD;stop-opacity:0.9576"/>
							<stop  offset="1" style="stop-color:#FFFFFF"/>
						</linearGradient>
						<path class="st46" d="M149.9,45.8c0,0.1-0.1,0.2-0.1,0.3c0.1,0.2,0.3,0.5,0.4,0.7C150.1,46.5,150,46.1,149.9,45.8z"/>
						
							<linearGradient id="SVGID_42_" gradientUnits="userSpaceOnUse" x1="151.6397" y1="-364.4558" x2="175.0354" y2="-402.5311" gradientTransform="matrix(1 0 0 -1 0 -331.73)">
							<stop  offset="0" style="stop-color:#ADDCED"/>
							<stop  offset="0.5534" style="stop-color:#ADDCED;stop-opacity:0"/>
							<stop  offset="0.9349" style="stop-color:#ADDCED;stop-opacity:0.8543"/>
							<stop  offset="1" style="stop-color:#ADDCED"/>
						</linearGradient>
						<path class="st47" d="M155.8,38.2c0.3-0.3,0.6-0.6,0.9-0.8c0.6-3.9,3.3-6.7,3.5-6.9l0,0l-1.1-1.1c-0.9,0.5-2.1,0.9-3,1.9
							l-2.9,3.5c0,0-5,5-3.3,11.1c1.1-2.7,2.8-4.4,2.8-4.4L155.8,38.2z"/>
						
							<linearGradient id="SVGID_43_" gradientUnits="userSpaceOnUse" x1="148.8683" y1="-359.9454" x2="172.1207" y2="-397.7877" gradientTransform="matrix(1 0 0 -1 0 -331.73)">
							<stop  offset="0" style="stop-color:#ADDCED"/>
							<stop  offset="0.5534" style="stop-color:#ADDCED;stop-opacity:0"/>
							<stop  offset="0.9349" style="stop-color:#ADDCED;stop-opacity:0.8543"/>
							<stop  offset="1" style="stop-color:#ADDCED"/>
						</linearGradient>
						<path class="st48" d="M155.8,38.2c0.3-0.3,0.6-0.6,0.9-0.8c0.6-3.9,3.3-6.7,3.5-6.9l0,0l-1.1-1.1c-0.9,0.5-1.9,0.9-2.8,1.9
							l-3.1,3.5c0,0-5,5-3.3,11.1c1.1-2.7,2.8-4.4,2.8-4.4L155.8,38.2z"/>
						
							<linearGradient id="SVGID_44_" gradientUnits="userSpaceOnUse" x1="148.9785" y1="-346.0592" x2="172.0421" y2="-383.5941" gradientTransform="matrix(1 0 0 -1 0 -331.73)">
							<stop  offset="0" style="stop-color:#E73374"/>
							<stop  offset="0.5526" style="stop-color:#824068;stop-opacity:0"/>
							<stop  offset="0.7751" style="stop-color:#843F66;stop-opacity:0.4973"/>
							<stop  offset="0.8667" style="stop-color:#8B3A60;stop-opacity:0.7021"/>
							<stop  offset="0.9341" style="stop-color:#973154;stop-opacity:0.8527"/>
							<stop  offset="0.9895" style="stop-color:#A92544;stop-opacity:0.9766"/>
							<stop  offset="1" style="stop-color:#AD2240"/>
						</linearGradient>
						<path class="st49" d="M160.3,46.9L160.3,46.9l3.2,3.2c0,0,0.9,0.9,2.4,1.8l2-2c0,0,4.7-4.7,4.9-11.1l-0.5-0.5c0,0-4-4-9.1-3.6
							C165.9,41.1,160.5,46.7,160.3,46.9z"/>
						
							<linearGradient id="SVGID_45_" gradientUnits="userSpaceOnUse" x1="162.5711" y1="-357.9097" x2="185.6346" y2="-395.4445" gradientTransform="matrix(1 0 0 -1 0 -331.73)">
							<stop  offset="0" style="stop-color:#55B7D7"/>
							<stop  offset="0.5534" style="stop-color:#55B7D7;stop-opacity:0"/>
							<stop  offset="0.9349" style="stop-color:#55B7D7;stop-opacity:0.8543"/>
							<stop  offset="1" style="stop-color:#55B7D7"/>
						</linearGradient>
						<path class="st50" d="M160.3,30.5c1.4,1.4,2.3,2.8,2.9,4.1c5.2-0.3,9.1,3.6,9.1,3.6l0.5,0.5c0.1-2.9-0.8-6.2-3.6-9.5
							c-1.7-0.9-4-1.5-6.5-1.1L160.3,30.5L160.3,30.5z"/>
						
							<linearGradient id="SVGID_46_" gradientUnits="userSpaceOnUse" x1="160.214" y1="-359.3581" x2="183.2776" y2="-396.8929" gradientTransform="matrix(1 0 0 -1 0 -331.73)">
							<stop  offset="0" style="stop-color:#ADDCED"/>
							<stop  offset="0.5534" style="stop-color:#ADDCED;stop-opacity:0"/>
							<stop  offset="0.9349" style="stop-color:#ADDCED;stop-opacity:0.8543"/>
							<stop  offset="1" style="stop-color:#ADDCED"/>
						</linearGradient>
						<path class="st51" d="M160.3,30.5L160.3,30.5L160.3,30.5l2.4-2.4c-1.1,0.2-2.3,0.6-3.5,1.3L160.3,30.5z"/>
						
							<linearGradient id="SVGID_47_" gradientUnits="userSpaceOnUse" x1="151.2026" y1="-344.6926" x2="174.2662" y2="-382.2274" gradientTransform="matrix(1 0 0 -1 0 -331.73)">
							<stop  offset="0" style="stop-color:#55B7D7"/>
							<stop  offset="0.5534" style="stop-color:#55B7D7;stop-opacity:0"/>
							<stop  offset="0.9349" style="stop-color:#55B7D7;stop-opacity:0.8543"/>
							<stop  offset="1" style="stop-color:#55B7D7"/>
						</linearGradient>
						<path class="st52" d="M160.3,30.5L160.3,30.5L160.3,30.5l2.4-2.4c-1.1,0.2-2.3,0.6-3.5,1.3L160.3,30.5z"/>
					</g>
				</g>
			</g>
		</g>
	</g>
</g>
</svg>
