<?xml version="1.0" encoding="utf-8"?>
<!-- Generator: Adobe Illustrator 17.1.0, SVG Export Plug-In . SVG Version: 6.00 Build 0)  -->
<!DOCTYPE svg PUBLIC "-//W3C//DTD SVG 1.1//EN" "http://www.w3.org/Graphics/SVG/1.1/DTD/svg11.dtd">
<svg version="1.1" xmlns="http://www.w3.org/2000/svg" xmlns:xlink="http://www.w3.org/1999/xlink" x="0px" y="0px"
	 viewBox="0 0 368.504 208.347" width="368.504" height="208.347" enable-background="new 0 0 368.504 208.347" xml:space="preserve">
<g id="Label">
	<rect x="0" y="0" fill="#DA2323" width="368.504" height="208.347"/>
</g>
<g id="Logo_deutsch">
	<g>
		<g>
			<g>
				<path fill="#FFFFFF" d="M109.705,137.889c-1.284-1.24-3.078-1.869-5.334-1.869c-2.234,0-4.306,0.494-6.153,1.469
					c-1.842,0.971-3.406,2.223-4.651,3.717c-1.734,2.064-2.961,4.527-3.645,7.318c-0.682,2.791-1.025,5.578-1.025,8.281
					c0,3.354,0.729,5.994,2.168,7.846c1.444,1.865,3.595,2.811,6.393,2.811c2.324,0,4.435-0.41,6.27-1.219
					c1.832-0.801,3.373-1.734,4.578-2.773l0.026-0.023l0.016-0.031c0.211-0.463,0.392-1.012,0.535-1.633
					c0.146-0.629,0.22-1.242,0.22-1.828v-0.307l-0.254,0.174c-0.642,0.443-1.37,0.842-2.163,1.189
					c-0.791,0.346-1.583,0.637-2.419,0.891c-0.866,0.256-1.659,0.445-2.426,0.58c-0.786,0.141-1.514,0.213-2.159,0.213
					c-3.34,0-4.964-2.412-4.964-7.373v-1.693c3.399-0.135,6.216-0.529,8.373-1.176c2.208-0.66,3.96-1.488,5.21-2.465
					c1.246-0.979,2.126-2.092,2.614-3.312c0.476-1.209,0.716-2.453,0.716-3.699C111.63,140.837,110.982,139.126,109.705,137.889z
					 M105.949,145.518c-0.241,0.711-0.753,1.369-1.519,1.958c-0.786,0.604-1.941,1.113-3.434,1.514
					c-1.473,0.4-3.398,0.639-5.884,0.73c0.16-1.066,0.389-2.135,0.679-3.183c0.3-1.084,0.739-2.111,1.31-3.049
					c0.686-1.168,1.583-2.104,2.666-2.785c1.08-0.682,2.256-1.025,3.496-1.025c1.101,0,1.866,0.33,2.338,1.008
					c0.472,0.691,0.709,1.564,0.709,2.598C106.31,144.057,106.192,144.788,105.949,145.518z"/>
			</g>
			<g>
				<path fill="#FFFFFF" d="M81.671,132.541c0.986,0,1.824-0.338,2.492-1.005c0.666-0.668,1.003-1.611,1.003-2.802
					c0-1.108-0.327-1.988-0.974-2.614c-0.645-0.625-1.49-0.94-2.521-0.94c-0.986,0-1.836,0.337-2.521,1.001
					c-0.688,0.668-1.037,1.527-1.037,2.554C78.113,131.259,79.312,132.541,81.671,132.541z"/>
			</g>
			<g>
				<path fill="#FFFFFF" d="M80.365,162.32c-0.076-0.299-0.086-0.414-0.088-0.434l3.105-25.199l-0.125-0.039
					c-0.262-0.086-0.668-0.15-1.244-0.193c-0.598-0.043-1.023-0.064-1.342-0.064c-1.279,0-2.457,0.148-3.5,0.438
					c-1.039,0.291-1.941,0.629-2.727,1.029c-0.309,0.311-0.582,0.852-0.811,1.611c-0.234,0.764-0.35,1.305-0.35,1.652v0.18
					l4.477-0.49l-3.18,21.919c0,0.562,0.217,1.293,0.664,2.232c0.432,0.904,0.947,1.725,1.533,2.439l0.049,0.059h0.076
					c0.459,0,1.018-0.043,1.658-0.127c0.613-0.074,1.264-0.174,1.984-0.305c0.66-0.125,1.32-0.266,2.016-0.436
					c0.664-0.166,1.254-0.355,1.754-0.564l0.049-0.02l0.026-0.047c0.253-0.422,0.486-1.006,0.695-1.738
					c0.21-0.73,0.316-1.338,0.316-1.803v-0.178l-4.892,0.502C80.457,162.641,80.408,162.498,80.365,162.32z"/>
			</g>
			<g>
				<path fill="#FFFFFF" d="M65.253,162.174c-0.029-0.152-0.091-0.467-0.091-0.533l4.647-37.594l-0.127-0.042
					c-0.262-0.088-0.682-0.152-1.244-0.193c-0.553-0.041-1.002-0.062-1.335-0.062c-1.245,0-2.404,0.148-3.443,0.439
					c-1.049,0.295-1.952,0.633-2.724,1.03c-0.308,0.308-0.581,0.85-0.81,1.61c-0.235,0.76-0.347,1.3-0.347,1.65v0.18l4.416-0.488
					l-1.236,8.959c-0.729-0.301-1.48-0.557-2.235-0.764c-0.838-0.229-1.705-0.346-2.577-0.346c-2.448,0-4.685,0.578-6.65,1.721
					c-1.967,1.137-3.637,2.68-4.964,4.584c-1.319,1.855-2.335,4.031-3.019,6.47c-0.679,2.441-1.023,4.99-1.023,7.576
					c0,1.982,0.21,3.691,0.625,5.08c0.416,1.393,0.996,2.543,1.728,3.422c0.734,0.881,1.616,1.541,2.625,1.961
					c0.998,0.416,2.12,0.627,3.336,0.627c1.533,0,3.163-0.355,4.845-1.061c1.662-0.697,3.132-1.879,4.369-3.508h0.095
					c0.125,0.711,0.328,1.484,0.602,2.297c0.284,0.859,0.602,1.598,0.94,2.191l0.047,0.08h0.093c0.418,0,0.952-0.043,1.588-0.127
					c0.612-0.072,1.264-0.174,1.989-0.305c0.667-0.125,1.345-0.271,2.016-0.436c0.658-0.164,1.25-0.355,1.75-0.564l0.047-0.02
					l0.029-0.045c0.252-0.416,0.486-0.99,0.697-1.707c0.207-0.705,0.314-1.301,0.314-1.77v-0.176l-4.813,0.436
					C65.355,162.605,65.301,162.418,65.253,162.174z M48.277,152.807c0.104-0.992,0.259-2.004,0.459-3.008
					c0.201-1.004,0.48-2.006,0.83-2.973c0.336-0.935,0.755-1.787,1.25-2.531c0.8-1.244,1.845-2.332,3.103-3.229
					c1.247-0.881,2.732-1.328,4.418-1.328c0.687,0,1.431,0.104,2.215,0.305c0.735,0.189,1.364,0.434,1.868,0.73l-2.309,17.738
					c-0.804,1.41-1.815,2.49-3.005,3.217c-1.182,0.723-2.431,1.09-3.712,1.09c-1.587,0-2.873-0.564-3.824-1.674
					c-0.961-1.117-1.447-2.992-1.447-5.574C48.122,154.73,48.173,153.801,48.277,152.807z"/>
			</g>
		</g>
		<g>
			<path fill="#FFFFFF" d="M317.279,166.783h-8.707v-29.935h7.064l1.23,2.93c1.123-1.955,3.092-3.523,7.648-3.523h1.441l-1.1,7.408
				c0,0-1.059-0.092-1.795-0.092c-2.588,0-4.525,1.436-5.783,3.641V166.783z"/>
			<path fill="#FFFFFF" d="M183.29,143.782c-3.062,0-4.749,2.861-4.749,8.06c0,5.162,1.686,8.004,4.749,8.004
				c3.114,0,4.755-2.768,4.755-8.004C188.045,146.571,186.404,143.782,183.29,143.782 M183.29,167.492
				c-10.066,0-13.634-8.43-13.634-15.65c0-11.578,7.042-15.706,13.634-15.706c6.599,0,13.642,4.129,13.642,15.706
				C196.932,163.381,189.889,167.492,183.29,167.492"/>
			<path fill="#FFFFFF" d="M210.129,159.309c0.635,0.369,1.529,0.713,3.156,0.713c2.422,0,5.645-0.889,5.645-8.594
				c0-5.146-1.578-7.646-4.814-7.646c-1.504,0-2.846,0.633-3.986,1.885V159.309z M212.816,167.492
				c-6.512,0-9.814-2.287-11.223-3.264l-0.172-0.117v-38.906l8.707-1.191v15.047c1.277-1.307,3.57-2.926,7.123-2.926
				c6.711,0,10.564,5.189,10.564,14.23C227.816,161.729,222.766,167.492,212.816,167.492"/>
			<path fill="#FFFFFF" d="M237.074,134.111c-2.781,0-4.443-1.62-4.443-4.332v-0.271c0-2.721,1.617-4.278,4.443-4.278
				c2.822,0,4.443,1.558,4.443,4.278v0.271C241.518,132.491,239.855,134.111,237.074,134.111 M241.43,166.781h-8.711v-29.937h8.711
				V166.781z"/>
			<polygon fill="#FFFFFF" points="247.752,166.781 256.516,166.781 256.516,124.014 247.752,125.23 			"/>
			<path fill="#FFFFFF" d="M267.197,134.111c-2.777,0-4.441-1.62-4.441-4.332v-0.271c0-2.721,1.621-4.278,4.441-4.278
				c2.82,0,4.443,1.558,4.443,4.278v0.271C271.64,132.491,269.982,134.111,267.197,134.111 M271.552,166.781h-8.705v-29.937h8.705
				V166.781z"/>
			<path fill="#FFFFFF" d="M294.08,158.156c-0.871,1.119-2.17,1.689-3.863,1.689c-2.352,0-5.047-0.896-5.047-7.887
				c0-5.503,2.053-8.296,6.109-8.296c1.148,0,2.029,0.145,2.801,0.457V158.156z M302.638,138.545
				c-1.266-0.66-4.635-2.41-10.473-2.41c-10.094,0-15.883,5.875-15.883,16.121c0,9.824,4.086,15.236,11.508,15.236
				c2.426,0,5.074-0.738,6.467-2.51c0.197-0.254,0.32-0.479,0.32-0.479l0.949,2.26h7.303v-10.471v-17.65L302.638,138.545z"/>
			<polygon fill="#FFFFFF" points="154.222,125.205 144.073,152.475 133.979,125.205 124.635,125.205 121.933,166.775 
				130.7,166.775 132.029,144.233 140.727,166.775 147.358,166.775 155.996,144.232 157.325,166.775 166.154,166.775 
				163.45,125.205 			"/>
		</g>
	</g>
</g>
<g id="Schutzzone" display="none">
</g>
</svg>
