<?xml version="1.0" standalone="no"?>
<!DOCTYPE svg PUBLIC "-//W3C//DTD SVG 20010904//EN"
 "http://www.w3.org/TR/2001/REC-SVG-20010904/DTD/svg10.dtd">
<svg version="1.0" xmlns="http://www.w3.org/2000/svg"
 width="700.000000pt" height="700.000000pt" viewBox="0 0 700.000000 700.000000"
 preserveAspectRatio="xMidYMid meet">
<metadata>
Created by potrace 1.14, written by Peter Selinger 2001-2017
</metadata>
<g transform="translate(0.000000,700.000000) scale(0.100000,-0.100000)"
fill="#000000" stroke="none">
<path d="M3360 6110 c-74 -27 -301 -108 -505 -180 -397 -141 -684 -244 -805
-287 -41 -15 -77 -28 -80 -29 -6 -1 -32 -11 -80 -29 -19 -8 -87 -32 -150 -54
-63 -22 -191 -67 -285 -101 -93 -34 -188 -67 -210 -75 -42 -13 -308 -108 -337
-120 -9 -4 -15 -14 -13 -23 1 -9 6 -46 10 -82 4 -36 9 -78 11 -95 2 -16 6 -52
9 -80 3 -27 8 -66 10 -85 2 -19 7 -60 10 -90 3 -30 8 -71 10 -90 5 -36 11 -92
20 -170 3 -25 9 -85 15 -135 6 -49 13 -110 16 -135 3 -25 7 -61 10 -80 3 -19
7 -57 10 -85 2 -27 6 -63 8 -80 3 -16 7 -55 10 -85 4 -30 9 -71 11 -90 6 -45
16 -137 20 -175 1 -16 5 -48 8 -70 4 -22 9 -67 12 -100 3 -33 8 -71 10 -85 2
-14 6 -54 9 -90 4 -36 8 -76 11 -90 2 -14 9 -70 15 -125 13 -114 21 -185 35
-307 3 -24 7 -68 10 -98 6 -54 11 -95 20 -155 2 -16 7 -57 10 -90 3 -33 10
-96 15 -140 5 -44 12 -102 15 -130 3 -27 8 -68 11 -90 2 -22 7 -60 10 -85 2
-25 7 -61 9 -80 2 -19 7 -57 11 -85 3 -27 7 -51 8 -51 4 -4 174 -98 241 -134
44 -24 85 -47 91 -51 6 -5 40 -24 75 -43 35 -18 222 -121 414 -228 193 -107
381 -211 418 -232 37 -20 84 -46 105 -58 20 -11 183 -102 362 -200 179 -99
364 -202 412 -229 l87 -50 58 31 c32 16 65 35 73 40 8 5 157 88 330 183 312
172 1038 574 1508 834 133 74 242 140 243 146 0 7 2 19 3 27 2 8 9 62 15 120
13 118 19 169 26 220 3 19 7 60 10 90 9 81 14 131 20 170 2 19 7 62 10 95 3
33 8 69 10 80 2 11 7 52 10 90 3 39 8 77 10 85 2 8 6 44 10 80 3 36 10 101 15
145 6 44 12 103 15 130 3 28 8 61 10 75 2 14 7 57 11 95 3 39 8 77 9 85 2 8 6
47 10 85 4 39 8 81 10 95 2 14 6 43 9 65 3 22 8 67 11 100 3 33 7 71 10 85 2
14 7 52 10 85 3 33 10 94 15 135 5 41 12 98 15 125 3 28 8 66 10 85 2 19 7 60
10 90 3 30 8 71 10 90 14 110 31 267 39 346 3 23 7 63 11 90 14 104 39 333 40
358 0 16 -34 31 -195 88 -107 38 -319 114 -470 168 -151 54 -536 191 -855 305
-319 113 -602 214 -630 225 -112 42 -447 160 -453 159 -4 0 -68 -22 -142 -49z"/>
</g>
</svg>
