<?xml version="1.0" standalone="no"?>
<!DOCTYPE svg PUBLIC "-//W3C//DTD SVG 20010904//EN"
 "http://www.w3.org/TR/2001/REC-SVG-20010904/DTD/svg10.dtd">
<svg version="1.0" xmlns="http://www.w3.org/2000/svg"
 width="400.000000pt" height="400.000000pt" viewBox="0 0 400.000000 400.000000"
 preserveAspectRatio="xMidYMid meet">
<metadata>
Created by potrace 1.11, written by Peter Selinger 2001-2013
</metadata>
<g transform="translate(0.000000,400.000000) scale(0.100000,-0.100000)"
fill="#000000" stroke="none">
<path d="M1836 3910 c-9 -26 -123 -150 -138 -150 -5 0 -15 15 -23 33 -8 17
-14 28 -15 23 0 -5 -9 -1 -20 9 -11 10 -20 14 -21 9 -1 -5 -2 -16 -3 -24 -2
-8 -3 -30 -4 -47 -1 -23 -7 -33 -18 -33 -11 0 -14 -6 -8 -22 15 -49 15 -52 -4
-18 -11 19 -17 41 -14 49 3 8 -3 6 -15 -6 -11 -11 -23 -27 -26 -34 -4 -11 -6
-11 -6 -1 -1 7 -5 10 -11 7 -6 -4 -10 8 -11 27 0 20 -3 27 -7 18 -15 -34 -41
-62 -51 -55 -6 3 -11 2 -11 -4 0 -5 5 -13 10 -16 6 -3 10 -11 10 -17 0 -7 -6
-6 -15 2 -20 17 -19 37 3 49 9 6 13 10 7 11 -18 0 -31 -14 -49 -54 -13 -27
-21 -35 -29 -27 -7 7 -6 16 6 29 9 10 17 27 17 37 0 12 -9 5 -30 -23 -16 -23
-30 -49 -30 -58 0 -11 -6 -15 -20 -11 -13 3 -20 0 -20 -8 0 -8 -5 -17 -12 -21
-8 -5 -9 0 -4 17 10 34 14 79 6 79 -3 0 -12 -17 -19 -37 l-14 -37 -18 44 -18
45 -2 -70 c-1 -38 -2 -76 -2 -82 1 -9 -5 -10 -17 -3 -12 7 -19 21 -18 42 0 41
-12 97 -22 103 -4 2 -3 -16 1 -41 5 -27 5 -63 -1 -87 -5 -23 -10 -60 -10 -81
0 -35 -1 -38 -13 -22 -13 17 -14 17 -30 1 -15 -14 -20 -15 -35 -4 -16 13 -16
12 -1 -6 31 -38 50 -88 39 -99 -8 -8 -9 -5 -4 8 6 16 4 18 -10 13 -10 -4 -28
-7 -40 -7 -15 0 -27 -9 -34 -25 -7 -15 -8 -25 -2 -25 15 0 12 -21 -7 -42 -16
-18 -16 -18 0 -12 20 7 22 -9 4 -28 -8 -7 -14 -21 -14 -30 0 -9 -12 -41 -26
-71 -29 -57 -57 -142 -57 -167 1 -11 5 -10 16 5 15 19 16 17 10 -25 -6 -36 -5
-43 5 -32 24 23 32 12 26 -34 -3 -31 -1 -47 7 -50 7 -3 12 -22 12 -45 -1 -26
4 -44 14 -50 10 -5 11 -8 3 -9 -7 0 -13 -5 -13 -11 0 -5 4 -8 9 -4 5 3 11 -3
14 -12 2 -10 7 0 12 24 4 23 14 44 21 47 17 6 18 -3 4 -38 -5 -15 -6 -26 -1
-26 5 0 11 6 14 13 2 6 7 -12 11 -41 4 -29 4 -57 1 -62 -8 -12 -16 -80 -16
-133 0 -22 -4 -49 -9 -62 -7 -17 -4 -29 10 -44 l18 -22 9 38 10 38 8 -40 c4
-22 11 -42 15 -45 5 -3 11 -26 15 -53 6 -41 5 -46 -9 -41 -11 4 -16 1 -16 -10
0 -9 5 -16 11 -16 7 0 9 -10 5 -26 -13 -49 5 -144 31 -173 13 -14 22 -19 19
-11 -2 8 -13 39 -22 68 -12 36 -15 56 -8 60 6 4 14 48 17 97 4 50 13 128 21
175 8 47 17 108 20 135 13 111 19 160 20 170 1 6 5 16 9 23 8 12 18 148 19
247 0 36 7 60 27 90 14 22 26 46 26 54 0 8 7 17 15 21 8 4 25 12 37 18 12 6
24 8 27 3 3 -5 21 -11 41 -13 25 -3 35 0 39 12 3 12 4 11 5 -2 1 -22 24 -23
40 -4 7 8 26 18 42 21 17 4 33 13 36 20 2 8 10 12 18 9 7 -3 15 4 18 16 4 14
12 20 24 19 10 -2 24 0 31 4 7 5 14 2 18 -7 8 -21 24 -20 25 2 0 15 1 15 8 -2
7 -18 8 -18 14 -2 5 13 11 15 27 6 13 -7 20 -7 20 0 0 5 7 10 15 10 8 0 15 -6
15 -14 0 -9 7 -12 20 -9 12 3 20 0 20 -8 0 -8 6 -5 15 7 14 18 14 18 15 -6 1
-14 4 -19 7 -12 2 6 9 10 14 7 14 -9 49 14 50 33 0 13 3 12 11 -5 13 -27 28
-30 28 -5 1 15 2 14 12 -3 15 -27 13 -25 36 -30 25 -4 72 -34 72 -45 0 -4 8
-10 18 -13 9 -4 34 -13 55 -21 21 -8 55 -14 75 -14 20 0 38 -4 40 -10 1 -5 14
-7 27 -4 19 3 35 -7 74 -46 28 -27 51 -58 51 -69 0 -10 4 -23 9 -28 4 -6 13
-29 18 -52 9 -34 8 -40 -3 -36 -17 6 -17 -5 -3 -138 8 -72 18 -115 35 -147 13
-25 24 -54 24 -64 0 -11 9 -66 21 -121 19 -92 25 -155 32 -324 1 -29 5 -53 10
-53 4 0 7 4 7 9 0 18 35 17 46 -2 10 -18 12 -18 31 9 12 16 25 45 30 64 11 39
5 120 -7 100 -5 -7 -9 -2 -12 14 -5 26 6 36 15 14 3 -7 6 10 6 39 1 46 -1 51
-18 48 -15 -3 -20 4 -26 32 -11 61 -19 26 -21 -95 -1 -89 -5 -124 -18 -147
l-17 -30 2 55 c1 30 -2 54 -7 53 -5 -1 -8 47 -7 110 2 154 -1 142 27 124 26
-17 42 -11 25 9 -6 7 -11 26 -11 43 -1 18 -5 28 -11 24 -6 -4 -8 0 -4 9 3 9
-1 37 -8 62 -10 31 -11 44 -3 40 11 -7 6 55 -9 92 -5 13 -3 16 8 12 12 -5 14
2 11 30 -3 26 -1 33 8 27 8 -5 10 -2 7 11 -4 11 -9 33 -12 49 -7 41 7 9 32
-70 16 -52 21 -60 41 -57 12 2 22 -2 22 -8 0 -6 -4 -8 -10 -5 -5 3 -10 1 -10
-5 0 -7 6 -10 13 -7 7 2 12 21 11 46 0 26 2 37 7 29 9 -13 9 -3 11 162 1 78
-13 166 -31 197 -6 11 -11 13 -11 5 0 -7 -4 -11 -9 -7 -5 3 -12 1 -16 -5 -3
-5 -11 -10 -16 -10 -6 0 -7 5 -4 10 3 6 -1 13 -10 16 -10 4 -12 10 -7 18 5 6
12 23 14 39 5 23 3 25 -10 15 -13 -11 -14 -9 -7 12 4 14 11 32 16 40 7 12 8
12 9 -3 0 -10 4 -16 9 -13 5 3 8 24 7 45 -2 30 -9 46 -34 67 -19 17 -32 38
-32 52 0 13 -4 21 -9 17 -6 -3 -8 9 -7 27 2 18 1 23 -1 11 -5 -27 -18 -30 -27
-7 -3 8 -11 12 -17 8 -8 -4 -9 -3 -5 4 4 7 2 12 -4 12 -6 0 -9 3 -6 8 2 4 -1
17 -8 29 -11 22 -12 22 -24 3 -10 -17 -10 -20 5 -20 13 0 14 -3 5 -12 -18 -18
-40 7 -26 29 11 18 -10 53 -32 53 -6 0 -23 25 -39 55 -22 45 -25 58 -15 70 7
8 8 15 2 15 -17 0 -37 -31 -24 -39 7 -4 8 -12 2 -21 -13 -20 -43 54 -38 92 3
20 1 25 -7 18 -7 -5 -15 -7 -18 -3 -4 3 -7 -3 -7 -15 0 -12 5 -22 10 -22 6 0
10 -8 10 -17 0 -14 -3 -13 -16 5 -19 27 -34 20 -34 -16 l0 -27 -21 33 c-12 17
-22 32 -24 32 -1 0 -1 -12 2 -27 3 -23 0 -21 -16 12 -18 39 -19 63 -1 35 6 -8
10 -10 10 -5 0 6 -10 21 -21 35 -19 23 -20 23 -14 4 3 -14 -1 -28 -10 -38 -18
-17 -30 -22 -21 -7 3 4 -3 26 -14 47 l-19 39 -2 -35 c-1 -19 -2 -41 -2 -47 1
-17 1 -17 -52 8 -33 15 -45 27 -45 43 0 11 -5 28 -11 36 -8 12 -9 9 -5 -12 5
-21 2 -28 -8 -28 -8 0 -17 6 -19 13 -4 9 -8 9 -15 -2 -8 -10 -13 -8 -27 10
-10 14 -15 17 -12 7 5 -15 3 -16 -18 -6 -25 11 -41 42 -36 67 2 13 0 13 -13 2
-17 -15 -22 -8 -28 39 l-4 25 -8 -25z m-156 -158 c0 -16 -44 29 -47 48 -3 22
-1 21 22 -10 14 -18 25 -36 25 -38z m-153 -104 c-3 -7 -5 -2 -5 12 0 14 2 19
5 13 2 -7 2 -19 0 -25z m203 -3 c0 -5 -5 -3 -10 5 -5 8 -10 20 -10 25 0 6 5 3
10 -5 5 -8 10 -19 10 -25z m523 -30 c-3 -9 -8 -14 -10 -11 -3 3 -2 9 2 15 9
16 15 13 8 -4z m-799 -61 c2 -16 4 -29 5 -29 1 0 4 -18 6 -40 3 -22 11 -62 19
-89 8 -27 11 -45 6 -40 -6 6 -17 41 -25 79 -9 39 -22 94 -30 124 -11 46 -11
51 1 39 8 -8 16 -28 18 -44z m83 24 c-3 -8 -6 -5 -6 6 -1 11 2 17 5 13 3 -3 4
-12 1 -19z m-274 -83 l6 -40 -14 40 c-7 22 -13 51 -13 65 l0 25 7 -25 c4 -14
11 -43 14 -65z m-46 -7 c-3 -7 -5 -2 -5 12 0 14 2 19 5 13 2 -7 2 -19 0 -25z
m3 -48 c0 -5 -4 -10 -10 -10 -5 0 -10 5 -10 10 0 6 5 10 10 10 6 0 10 -4 10
-10z m78 -15 c-3 -3 -9 2 -12 12 -6 14 -5 15 5 6 7 -7 10 -15 7 -18z m-188
-15 c6 -11 8 -20 6 -20 -3 0 -10 9 -16 20 -6 11 -8 20 -6 20 3 0 10 -9 16 -20z
m304 4 c3 -8 2 -12 -4 -9 -6 3 -10 10 -10 16 0 14 7 11 14 -7z m1132 -11 c-10
-10 -19 5 -10 18 6 11 8 11 12 0 2 -7 1 -15 -2 -18z m-1155 -33 c2 -14 2 -48
0 -57 -3 -16 -21 23 -21 45 0 21 19 32 21 12z m1076 -27 c-3 -10 -5 -4 -5 12
0 17 2 24 5 18 2 -7 2 -21 0 -30z m-1220 -5 c-3 -7 -5 -2 -5 12 0 14 2 19 5
13 2 -7 2 -19 0 -25z m1286 20 c6 -18 -4 -81 -15 -93 -5 -6 -7 9 -5 37 6 63
-9 52 -18 -15 -6 -37 -10 -46 -15 -32 -11 31 18 115 40 115 5 0 10 -6 13 -12z
m37 -73 c0 -65 -9 -95 -27 -95 -11 0 -13 8 -9 28 2 15 8 54 11 86 8 71 25 58
25 -19z m-1243 33 c1 -26 -1 -29 -7 -13 -6 17 -3 45 5 45 1 0 2 -15 2 -32z
m-95 -23 c3 -13 1 -22 -3 -19 -9 5 -13 44 -5 44 2 0 6 -11 8 -25z m1219 2
c-10 -9 -11 -8 -5 6 3 10 9 15 12 12 3 -3 0 -11 -7 -18z m-1281 -18 c0 -11 -4
-18 -9 -14 -6 3 -9 14 -8 25 2 24 17 15 17 -11z m1460 0 c0 -18 -18 -9 -23 12
-4 16 -3 18 9 8 8 -6 14 -15 14 -20z m-1350 -62 c0 -5 -4 -5 -10 -2 -5 3 -10
14 -10 23 0 15 2 15 10 2 5 -8 10 -19 10 -23z m147 11 c-3 -8 -6 -5 -6 6 -1
11 2 17 5 13 3 -3 4 -12 1 -19z m1166 -18 c-3 -11 -9 -20 -13 -20 -5 0 -6 9
-3 20 3 11 9 20 13 20 5 0 6 -9 3 -20z m-1444 -73 c-2 -1 -13 -9 -24 -17 -19
-14 -19 -14 -6 3 7 9 18 17 24 17 6 0 8 -1 6 -3z m1431 -109 c0 -5 -9 -4 -20
2 -11 6 -20 12 -20 14 0 2 9 2 20 -1 11 -3 20 -9 20 -15z m-1508 -20 c-7 -7
-12 -8 -12 -2 0 14 12 26 19 19 2 -3 -1 -11 -7 -17z m1522 -14 c3 -8 2 -12 -4
-9 -6 3 -10 10 -10 16 0 14 7 11 14 -7z m-1483 -117 c-8 -8 -11 -3 -9 18 2 43
12 55 16 21 2 -16 -1 -33 -7 -39z m-54 11 c-3 -7 -5 -2 -5 12 0 14 2 19 5 13
2 -7 2 -19 0 -25z m-16 -89 c-6 -16 -10 -18 -10 -7 -1 22 12 55 16 42 2 -6 -1
-22 -6 -35z m-30 -32 c-10 -9 -11 -8 -5 6 3 10 9 15 12 12 3 -3 0 -11 -7 -18z
m80 -299 c-11 -60 -26 -24 -16 40 6 40 9 44 16 25 4 -12 4 -42 0 -65z m1609
-341 c-10 -45 -17 -54 -30 -41 -7 7 -4 25 7 52 20 51 36 43 23 -11z"/>
<path d="M2660 3371 c0 -6 4 -13 10 -16 6 -3 7 1 4 9 -7 18 -14 21 -14 7z"/>
<path d="M2680 3193 c0 -10 5 -25 10 -33 7 -11 10 -7 10 18 0 17 -4 32 -10 32
-5 0 -10 -8 -10 -17z"/>
<path d="M956 2761 c-4 -7 -5 -15 -2 -18 9 -9 19 4 14 18 -4 11 -6 11 -12 0z"/>
<path d="M2663 2675 c0 -22 2 -30 4 -17 2 12 2 30 0 40 -3 9 -5 -1 -4 -23z"/>
<path d="M2705 2580 c-3 -5 -1 -10 4 -10 6 0 11 5 11 10 0 6 -2 10 -4 10 -3 0
-8 -4 -11 -10z"/>
<path d="M2169 2568 c-99 -20 -141 -36 -175 -65 -34 -29 -37 -36 -42 -101 -5
-77 6 -97 32 -57 9 14 21 23 27 19 15 -9 79 5 79 17 0 6 -6 7 -12 4 -7 -4 -2
3 12 14 l25 21 9 -25 c8 -19 19 -25 58 -30 30 -4 54 -3 62 4 10 8 18 2 37 -26
23 -36 53 -50 65 -32 3 5 15 7 27 4 27 -7 69 36 74 75 3 28 -28 93 -60 128
-44 47 -133 68 -218 50z m134 -115 c-7 -2 -19 -2 -25 0 -7 3 -2 5 12 5 14 0
19 -2 13 -5z m-113 -33 c0 -5 -8 -10 -17 -10 -15 0 -16 2 -3 10 19 12 20 12
20 0z"/>
<path d="M2661 2545 c0 -31 2 -36 9 -23 6 10 7 25 1 40 -9 20 -10 18 -10 -17z"/>
<path d="M1436 2549 c-20 -20 -42 -26 -31 -9 3 6 -1 7 -9 4 -9 -3 -16 -9 -16
-14 0 -4 -11 -20 -24 -35 -13 -15 -22 -34 -19 -42 6 -16 11 -16 60 1 25 9 45
11 54 5 11 -7 10 -9 -4 -9 -19 0 -76 -35 -89 -54 -4 -6 0 -18 8 -27 7 -8 14
-20 14 -26 0 -7 14 -8 38 -3 57 11 72 20 72 44 1 20 1 20 14 3 10 -13 26 -17
65 -16 28 1 51 5 51 9 0 3 6 15 14 25 12 16 16 17 29 6 9 -7 13 -20 10 -29 -4
-15 -3 -15 7 -2 9 11 13 12 17 3 7 -19 43 -16 43 4 0 15 1 15 18 0 26 -24 32
-21 32 12 0 41 -20 91 -36 91 -8 0 -14 6 -14 14 0 26 -121 57 -202 51 -26 -2
-50 1 -54 6 -8 14 -27 10 -48 -12z m141 -125 c-3 -3 -12 -4 -19 -1 -8 3 -5 6
6 6 11 1 17 -2 13 -5z"/>
<path d="M2700 2533 c0 -4 5 -15 10 -23 8 -13 10 -13 10 2 0 9 -4 20 -10 23
-5 3 -10 3 -10 -2z"/>
<path d="M2684 2445 c-6 -23 3 -102 10 -94 9 11 15 119 6 119 -5 0 -12 -11
-16 -25z"/>
<path d="M1020 2429 c0 -11 5 -17 10 -14 6 3 10 13 10 21 0 8 -4 14 -10 14 -5
0 -10 -9 -10 -21z"/>
<path d="M2245 2351 c-3 -5 -1 -12 5 -16 5 -3 10 1 10 9 0 18 -6 21 -15 7z"/>
<path d="M1016 2298 c11 -61 15 -65 30 -28 12 27 17 31 24 20 5 -8 12 -11 17
-7 14 14 -13 41 -45 44 -31 4 -32 3 -26 -29z"/>
<path d="M1080 2160 c0 -5 5 -10 11 -10 5 0 7 5 4 10 -3 6 -8 10 -11 10 -2 0
-4 -4 -4 -10z"/>
<path d="M1990 2087 c0 -13 12 -37 26 -53 l26 -29 -7 40 c-10 60 -45 92 -45
42z"/>
<path d="M2621 2014 c0 -11 3 -14 6 -6 3 7 2 16 -1 19 -3 4 -6 -2 -5 -13z"/>
<path d="M2591 1986 c-6 -7 -14 -33 -17 -58 -6 -41 -4 -46 16 -51 39 -10 59 8
51 46 -8 31 -28 77 -35 77 -2 0 -9 -6 -15 -14z"/>
<path d="M1960 1929 c-26 -15 -45 -19 -74 -14 -25 4 -42 2 -47 -6 -5 -8 -12
-5 -25 10 -10 11 -24 21 -31 21 -22 0 -63 -23 -63 -35 0 -21 46 -55 73 -55 17
0 27 -5 27 -14 0 -8 6 -17 13 -19 10 -4 10 -6 0 -6 -7 -1 -13 -10 -13 -20 0
-25 79 -36 97 -14 7 9 19 12 32 8 13 -4 21 -2 21 6 0 9 4 8 15 -1 8 -7 13 -16
10 -20 -3 -5 4 -6 16 -3 17 5 20 11 15 34 -3 16 -2 29 3 29 15 0 31 94 18 106
-13 13 -58 10 -87 -7z"/>
<path d="M2046 1755 c4 -8 10 -12 15 -9 11 6 2 24 -11 24 -5 0 -7 -7 -4 -15z"/>
<path d="M2103 1709 c3 -10 0 -19 -6 -20 -7 0 -57 -2 -112 -5 -190 -9 -356 -7
-389 5 -18 8 -28 6 -40 -8 -14 -16 -12 -18 27 -29 23 -7 71 -12 107 -11 105 3
334 -11 344 -21 4 -4 5 -13 2 -18 -9 -15 -98 -57 -126 -59 -56 -5 -68 -12 -73
-45 -3 -18 -1 -37 3 -42 11 -12 62 2 55 15 -12 19 15 36 59 36 46 1 66 12 174
93 68 51 87 78 77 109 -5 17 -10 20 -20 11 -10 -8 -24 -8 -50 -1 -34 9 -37 8
-32 -10z"/>
<path d="M2271 1554 c-14 -20 -35 -40 -48 -45 -13 -5 -23 -15 -23 -22 0 -8
-11 -22 -24 -33 l-25 -18 22 -21 c12 -12 30 -24 40 -28 23 -9 22 -31 -1 -25
-15 4 -18 1 -14 -18 7 -39 -14 -27 -24 14 -13 53 -29 46 -30 -13 -1 -33 1 -42
5 -25 9 32 21 14 14 -21 -4 -21 -9 -25 -29 -21 -20 4 -23 9 -18 26 5 17 4 19
-7 9 -7 -7 -23 -13 -35 -13 -13 0 -29 -7 -38 -15 -8 -8 -18 -15 -21 -15 -4 0
-5 7 -1 15 3 8 1 15 -4 15 -6 0 -10 -7 -10 -16 0 -8 -4 -13 -9 -10 -5 3 -12
-1 -15 -9 -3 -8 -9 -15 -13 -14 -4 1 -22 -2 -40 -6 -22 -5 -30 -12 -26 -22 4
-11 0 -13 -20 -8 -14 4 -28 2 -32 -4 -3 -6 -12 -8 -18 -4 -6 4 -25 7 -42 8
-16 0 -36 4 -42 8 -7 5 -18 5 -23 2 -6 -4 -17 -2 -24 4 -10 9 -15 8 -20 -5 -6
-16 -8 -16 -25 0 -14 13 -24 14 -45 6 -33 -12 -64 8 -43 29 11 11 9 12 -28 15
-11 0 -19 7 -17 14 1 6 -5 12 -13 12 -8 0 -15 -2 -15 -6 0 -6 43 -87 50 -94 3
-3 6 -16 8 -30 2 -14 11 -31 20 -37 9 -7 11 -13 4 -13 -6 0 -9 -7 -5 -17 5
-14 1 -15 -26 -10 -29 6 -31 5 -21 -13 6 -11 20 -20 30 -20 24 0 26 -15 5 -24
-17 -6 -11 -55 9 -68 8 -6 8 -8 0 -8 -7 0 16 -29 50 -63 33 -35 64 -62 68 -60
4 2 9 -1 13 -7 3 -5 24 -10 45 -10 25 0 42 -6 48 -15 4 -9 26 -17 47 -19 22
-2 41 -9 43 -15 2 -6 26 -11 55 -11 64 0 91 -20 75 -56 -6 -13 -20 -24 -30
-24 -11 0 -17 -4 -14 -8 8 -13 -10 -33 -30 -34 -10 0 -54 2 -96 6 -78 5 -83 4
-79 -29 1 -14 -72 -44 -179 -73 -50 -13 -85 -16 -149 -11 -82 6 -85 7 -118 45
-18 22 -56 73 -84 114 l-51 75 5 72 c4 56 10 77 27 95 12 13 27 34 33 48 11
23 12 20 15 -32 2 -32 7 -58 11 -58 5 0 9 90 9 200 l-1 201 -20 -18 c-11 -10
-64 -61 -117 -114 -74 -74 -99 -106 -109 -140 -13 -44 -16 -137 -5 -171 3 -10
1 -18 -5 -18 -6 0 -16 -10 -22 -22 -11 -21 -11 -22 4 -9 15 12 17 11 17 -6 0
-10 -5 -24 -11 -30 -8 -8 -8 -17 -1 -29 9 -16 10 -16 16 4 4 12 12 22 17 22 5
0 9 -1 9 -2 -1 -2 -6 -27 -13 -57 l-13 -53 -26 63 c-15 35 -31 82 -36 104
l-10 40 -1 -35 c-1 -19 3 -49 8 -66 15 -51 -1 -59 -41 -20 -33 32 -38 34 -62
23 -34 -16 -33 -27 2 -27 16 0 22 -3 15 -8 -8 -5 -3 -12 16 -20 32 -14 49 -65
30 -88 -8 -10 -9 -14 0 -14 6 0 11 5 11 11 0 6 9 9 20 6 11 -3 20 0 20 6 0 15
14 -2 28 -36 11 -26 11 -28 -8 -22 -11 3 -20 2 -20 -3 0 -10 -52 5 -77 21 -8
5 -13 3 -13 -5 0 -8 12 -15 27 -16 38 -3 42 -12 4 -12 -44 0 -83 27 -75 52 4
15 2 19 -12 16 -13 -2 -27 12 -49 49 -33 58 -50 68 -42 24 8 -39 -2 -70 -21
-68 -33 2 -72 -14 -72 -28 0 -8 -9 -15 -19 -15 -29 0 -52 -11 -45 -22 4 -6 -3
-5 -16 2 -24 13 -50 7 -50 -12 0 -9 3 -9 10 2 11 18 25 6 16 -16 -4 -11 -14
-15 -31 -11 -14 2 -23 2 -20 -1 9 -10 -99 -40 -109 -30 -16 13 -29 9 -22 -7 3
-10 -1 -15 -12 -15 -10 0 -27 -6 -38 -14 -11 -8 -34 -16 -51 -19 -18 -3 -38
-9 -45 -13 -31 -21 -82 -33 -89 -22 -4 6 -12 7 -18 4 -6 -4 -8 -12 -5 -18 4
-7 2 -8 -5 -4 -16 10 -53 -4 -48 -18 3 -8 -3 -12 -17 -12 -21 1 -21 -2 -23
-176 l-1 -177 1998 -1 1999 0 -20 34 c-11 19 -18 40 -17 47 2 9 -4 13 -16 11
-13 -3 -17 1 -13 12 3 8 1 17 -6 20 -9 3 -8 5 1 5 9 1 7 10 -8 32 -13 17 -28
28 -36 25 -9 -3 -14 2 -14 14 0 21 -15 27 -25 10 -12 -19 -35 1 -29 26 5 18 2
24 -10 24 -9 0 -16 7 -16 15 0 17 -16 20 -25 5 -3 -5 -11 -10 -17 -10 -6 0 -2
8 10 18 33 29 32 54 -4 64 -17 4 -37 15 -44 23 -7 8 -19 15 -26 15 -8 0 -14 3
-14 8 0 4 -15 14 -32 22 -18 7 -33 12 -33 9 0 -2 -13 5 -30 17 -29 20 -66 37
-74 34 -2 -1 -8 4 -12 12 -8 11 -10 11 -18 0 -6 -11 -9 -9 -13 6 -3 10 -19 25
-37 33 -17 8 -31 17 -31 21 0 3 -15 9 -32 13 -18 4 -51 18 -72 32 -21 14 -49
26 -62 27 -13 0 -28 10 -34 21 -6 11 -28 28 -48 38 -34 16 -38 16 -47 1 -5 -9
-21 -29 -33 -43 -17 -19 -22 -21 -18 -8 3 11 9 30 12 43 3 13 9 22 13 20 4 -3
5 12 3 32 l-5 36 -27 -61 c-15 -33 -33 -64 -40 -68 -9 -5 -11 -4 -6 3 10 17
-6 15 -32 -4 -28 -19 -38 -13 -23 14 8 15 7 23 -6 33 -14 12 -15 11 -10 -11 4
-14 4 -19 1 -12 -5 10 -16 5 -40 -19 -19 -18 -34 -28 -34 -22 0 6 7 13 15 16
8 4 26 25 41 49 15 24 31 45 35 48 8 6 30 56 35 80 17 96 16 115 -11 143 -19
20 -35 27 -63 27 -21 0 -46 6 -57 14 -11 7 -31 17 -45 21 -26 8 -94 56 -169
119 -46 38 -120 81 -127 73 -3 -2 0 -58 6 -123 12 -130 6 -168 -30 -179 -25
-8 -63 29 -55 54 14 47 6 250 -11 281 -7 14 -13 19 -14 12 0 -7 -5 -10 -11 -7
-6 4 -8 10 -4 13 3 3 -7 12 -22 19 -16 7 -20 11 -10 8 11 -3 17 1 18 13 0 14
2 14 9 -3 7 -17 9 -15 9 13 1 29 -1 31 -15 20 -19 -16 -47 -44 -118 -121 -46
-50 -54 -55 -59 -38 -3 12 1 22 9 25 8 3 13 16 13 28 -1 17 -2 18 -6 6 -5 -20
-12 -22 -32 -9 -9 6 -10 11 -2 15 6 4 11 1 12 -6 0 -12 18 25 22 47 3 14 30
34 39 29 5 -3 8 6 8 20 0 18 5 26 18 26 14 0 15 2 2 10 -11 7 -9 11 11 19 27
10 39 29 39 62 0 10 4 19 10 19 5 0 9 10 7 23 -1 14 3 21 11 19 10 -2 11 4 6
20 -3 13 -11 25 -15 26 -5 2 -9 12 -9 23 0 33 -42 23 -69 -17z m49 -688 c0 -8
-6 -16 -12 -19 -10 -3 -10 -9 -2 -23 8 -14 8 -22 0 -30 -6 -6 -20 -23 -31 -38
-29 -41 -45 -56 -59 -56 -6 0 -17 -13 -23 -29 -10 -27 -15 -29 -69 -33 -74 -5
-79 -3 -82 28 -1 19 4 27 19 31 12 3 18 11 15 19 -3 8 -1 14 5 14 15 0 69 56
69 72 0 11 2 11 9 0 7 -11 9 -11 14 2 5 11 14 15 30 11 16 -4 31 1 50 19 16
14 32 26 38 26 5 0 9 5 9 10 0 6 5 10 10 10 6 0 10 -6 10 -14z m45 4 c3 -5 1
-10 -4 -10 -6 0 -11 5 -11 10 0 6 2 10 4 10 3 0 8 -4 11 -10z m227 -47 c6 -12
15 -20 20 -17 4 3 8 0 8 -7 0 -7 7 -21 17 -31 15 -17 15 -19 -2 -38 -28 -31
-107 -78 -135 -81 -66 -6 -264 3 -245 11 l20 9 -20 1 c-14 2 -11 5 10 10 21 5
24 8 10 10 -14 1 -10 5 15 14 31 11 35 16 32 43 -3 26 0 31 25 36 15 3 32 2
38 -1 5 -4 20 -5 31 -4 12 2 24 -4 27 -12 4 -9 13 -16 22 -16 18 0 20 -16 3
-23 -10 -4 -10 -8 2 -16 8 -5 18 -7 22 -5 4 3 5 -3 1 -12 -5 -13 -3 -16 10
-11 10 4 17 1 18 -6 0 -7 5 -1 11 13 14 33 17 47 19 95 2 48 19 97 26 75 2 -8
9 -25 15 -37z m-242 -13 c0 -5 -4 -10 -10 -10 -5 0 -10 5 -10 10 0 6 5 10 10
10 6 0 10 -4 10 -10z m-1230 -176 c0 -8 -4 -12 -10 -9 -5 3 -10 10 -10 16 0 5
5 9 10 9 6 0 10 -7 10 -16z m-50 -16 c13 5 13 3 0 -14 -8 -10 -15 -20 -16 -22
-1 -2 -7 12 -13 30 -9 27 -8 30 2 17 6 -9 19 -14 27 -11z m1910 -8 c0 -5 -5
-10 -11 -10 -5 0 -7 5 -4 10 3 6 8 10 11 10 2 0 4 -4 4 -10z m-55 -10 c3 -5 1
-10 -4 -10 -6 0 -11 5 -11 10 0 6 2 10 4 10 3 0 8 -4 11 -10z m-1750 -48 c-6
-7 -35 18 -35 31 0 5 9 2 20 -8 11 -10 18 -20 15 -23z m1595 4 c0 -2 -8 -10
-17 -17 -16 -13 -17 -12 -4 4 13 16 21 21 21 13z m370 -6 c0 -5 -2 -10 -4 -10
-3 0 -8 5 -11 10 -3 6 -1 10 4 10 6 0 11 -4 11 -10z m-1926 -50 c-5 -5 -22
-12 -39 -16 -27 -7 -29 -6 -16 9 7 9 18 14 24 10 6 -4 8 0 4 11 -6 14 -4 15
14 5 12 -6 17 -15 13 -19z m-434 -10 c0 -5 -5 -10 -11 -10 -5 0 -7 5 -4 10 3
6 8 10 11 10 2 0 4 -4 4 -10z m1900 -5 c-7 -8 -20 -15 -29 -15 -11 1 -8 5 9
15 32 18 35 18 20 0z m707 -10 c17 -3 37 -13 44 -21 10 -12 9 -13 -7 -8 -10 4
-24 11 -31 16 -6 5 -17 8 -25 7 -32 -4 -59 2 -53 11 4 6 14 9 23 6 10 -2 31
-7 49 -11z m-2571 -52 c-3 -4 -6 -1 -6 6 0 7 -4 9 -10 6 -6 -4 -7 1 -3 11 6
15 7 15 15 -1 6 -9 7 -19 4 -22z m-273 2 c-7 -21 -13 -19 -13 6 0 11 4 18 10
14 5 -3 7 -12 3 -20z m2970 -12 c-7 -19 -24 -12 -34 15 -7 19 -6 20 16 10 14
-6 21 -16 18 -25z m-2506 -19 c-9 -10 -38 16 -31 28 4 6 13 4 22 -6 9 -8 13
-19 9 -22z m40 30 c-3 -3 -12 -4 -19 -1 -8 3 -5 6 6 6 11 1 17 -2 13 -5z
m-682 -14 c3 -5 1 -10 -4 -10 -6 0 -11 5 -11 10 0 6 2 10 4 10 3 0 8 -4 11
-10z m3190 -10 c3 -5 2 -10 -4 -10 -5 0 -13 5 -16 10 -3 6 -2 10 4 10 5 0 13
-4 16 -10z m60 -24 c7 3 22 -3 32 -13 10 -10 33 -29 51 -42 18 -13 31 -26 28
-29 -3 -3 -15 3 -26 13 -22 19 -51 38 -87 54 -13 6 -23 16 -22 23 0 10 2 10 5
1 3 -7 11 -10 19 -7z m-3349 -23 c-10 -10 -19 5 -10 18 6 11 8 11 12 0 2 -7 1
-15 -2 -18z m44 -8 c0 -8 -7 -15 -15 -15 -9 0 -12 6 -9 15 4 8 10 15 15 15 5
0 9 -7 9 -15z m2145 -5 c-3 -5 -17 -10 -31 -10 -14 0 -22 4 -19 10 3 6 17 10
31 10 14 0 22 -4 19 -10z m-883 -32 c-7 -7 -12 -8 -12 -2 0 14 12 26 19 19 2
-3 -1 -11 -7 -17z m-55 6 c-3 -3 -12 -4 -19 -1 -8 3 -5 6 6 6 11 1 17 -2 13
-5z m24 -21 c-12 -20 -14 -14 -5 12 4 9 9 14 11 11 3 -2 0 -13 -6 -23z m128
12 c3 -3 -7 -4 -23 -1 -16 3 -31 8 -35 11 -3 3 7 4 23 1 16 -3 31 -8 35 -11z
m-219 -10 c0 -2 -9 -3 -19 -2 -11 0 -18 5 -15 9 4 6 34 0 34 -7z m-560 1 c0
-3 -4 -8 -10 -11 -5 -3 -10 -1 -10 4 0 6 5 11 10 11 6 0 10 -2 10 -4z m600 -6
c0 -5 -7 -7 -15 -4 -8 4 -15 8 -15 10 0 2 7 4 15 4 8 0 15 -4 15 -10z m590 0
c0 -5 -4 -10 -10 -10 -5 0 -10 5 -10 10 0 6 5 10 10 10 6 0 10 -4 10 -10z
m-683 -48 c-13 -13 -19 -13 -31 -2 -9 7 -16 17 -16 22 0 6 5 6 14 -1 10 -9 17
-7 27 5 9 11 14 13 17 4 3 -7 -3 -19 -11 -28z m35 -5 c-8 -9 -18 -15 -21 -12
-3 4 0 10 7 14 8 5 10 15 5 26 -6 17 -5 18 9 5 15 -14 15 -17 0 -33z m-262 17
c0 -2 -7 -4 -15 -4 -8 0 -15 4 -15 10 0 5 7 7 15 4 8 -4 15 -8 15 -10z m355 5
c11 -17 -1 -21 -15 -4 -8 9 -8 15 -2 15 6 0 14 -5 17 -11z m-780 -19 c-3 -5
-14 -10 -23 -9 -14 0 -13 2 3 9 27 11 27 11 20 0z m930 -8 c-3 -3 -11 0 -18 7
-9 10 -8 11 6 5 10 -3 15 -9 12 -12z m2110 7 c11 -16 1 -19 -13 -3 -7 8 -8 14
-3 14 5 0 13 -5 16 -11z m-60 -9 c3 -5 1 -10 -4 -10 -6 0 -11 5 -11 10 0 6 2
10 4 10 3 0 8 -4 11 -10z m-2317 -42 c-18 -11 -30 -10 -23 2 3 6 1 10 -4 10
-6 0 -11 4 -11 10 0 6 10 5 25 -2 19 -8 22 -14 13 -20z m-944 -90 c6 -5 2 -8
-11 -8 -17 0 -20 4 -15 22 4 16 7 18 10 8 3 -8 10 -18 16 -22z m2556 10 c0
-15 -18 -17 -36 -4 -17 13 -17 14 9 13 15 -1 27 -5 27 -9z m-1220 -16 c0 -9
-44 -32 -58 -32 -10 1 38 40 49 40 5 0 9 -4 9 -8z m1697 2 c-3 -3 -12 -4 -19
-1 -8 3 -5 6 6 6 11 1 17 -2 13 -5z m-1797 -18 c0 -3 -4 -8 -10 -11 -5 -3 -10
-1 -10 4 0 6 5 11 10 11 6 0 10 -2 10 -4z m-1660 -16 c0 -5 -4 -10 -10 -10 -5
0 -10 5 -10 10 0 6 5 10 10 10 6 0 10 -4 10 -10z"/>
<path d="M1745 1540 c4 -6 11 -8 16 -5 14 9 11 15 -7 15 -8 0 -12 -5 -9 -10z"/>
<path d="M1790 1540 c-19 -12 -7 -22 21 -18 19 2 20 5 8 15 -9 7 -20 9 -29 3z"/>
<path d="M2105 1470 c3 -5 12 -7 20 -3 21 7 19 13 -6 13 -11 0 -18 -4 -14 -10z"/>
<path d="M2990 810 c1 -8 7 -28 16 -45 l14 -30 -5 35 c-5 35 -25 67 -25 40z"/>
<path d="M2991 728 c-1 -18 -6 -28 -16 -28 -8 0 -15 5 -15 11 0 5 -4 8 -9 5
-9 -6 9 -56 20 -56 4 0 10 10 13 23 7 21 8 21 15 3 7 -18 8 -18 14 -3 3 9 2
17 -4 17 -6 0 -8 3 -6 8 3 4 1 16 -4 27 -7 17 -8 17 -8 -7z"/>
<path d="M780 692 c0 -5 7 -9 15 -9 8 0 12 4 9 9 -3 4 -9 8 -15 8 -5 0 -9 -4
-9 -8z"/>
<path d="M675 669 c-10 -15 1 -23 20 -15 9 3 13 10 10 16 -8 13 -22 13 -30 -1z"/>
<path d="M1915 650 c4 -6 11 -8 16 -5 14 9 11 15 -7 15 -8 0 -12 -5 -9 -10z"/>
<path d="M615 639 c-4 -6 -5 -13 -2 -16 7 -7 27 6 27 18 0 12 -17 12 -25 -2z"/>
<path d="M800 640 c0 -5 5 -10 11 -10 5 0 7 5 4 10 -3 6 -8 10 -11 10 -2 0 -4
-4 -4 -10z"/>
<path d="M890 640 c0 -5 5 -10 11 -10 5 0 7 5 4 10 -3 6 -8 10 -11 10 -2 0 -4
-4 -4 -10z"/>
<path d="M845 590 c3 -5 8 -10 11 -10 2 0 4 5 4 10 0 6 -5 10 -11 10 -5 0 -7
-4 -4 -10z"/>
</g>
</svg>
